<?xml version="1.0" encoding="UTF-8"?>
<!DOCTYPE svg PUBLIC "-//W3C//DTD SVG 1.1//EN" "http://www.w3.org/Graphics/SVG/1.1/DTD/svg11.dtd">
<!-- Creator: CorelDRAW X8 -->
<svg xmlns="http://www.w3.org/2000/svg" xml:space="preserve" version="1.1" shape-rendering="geometricPrecision" text-rendering="geometricPrecision" image-rendering="optimizeQuality" fill-rule="evenodd" clip-rule="evenodd" viewBox="0 0 4244 4744" xmlns:xlink="http://www.w3.org/1999/xlink">
 <defs>
   <linearGradient id="id0" gradientUnits="userSpaceOnUse" x1="1537.06" y1="1807.15" x2="651.163" y2="-767.628">
    <stop offset="0" stop-opacity="1" stop-color="#2B2A29"/>
    <stop offset="0.490196" stop-opacity="1" stop-color="#787877"/>
    <stop offset="1" stop-opacity="1" stop-color="#C5C6C6"/>
   </linearGradient>
 </defs>
 <g id="Слой_x0020_1">
  <metadata id="CorelCorpID_0Corel-Layer"/>
  <path fill="white" d="M2081 4679c-30,-48 -65,-94 -104,-136 -199,-214 -497,-342 -767,-445 -208,-79 -424,-150 -625,-244 -177,-83 -357,-191 -469,-354 -80,-117 -115,-247 -116,-387 -1,-214 35,-416 95,-621 52,-181 119,-357 170,-538 125,-449 84,-795 -130,-1213l-17 -32 797 -709 29 14c827,410 1545,405 2372,0l30 -14 779 710 -16 31c-214,418 -255,764 -130,1213 51,181 118,357 170,538 60,205 96,407 95,621 -1,140 -36,270 -116,387 -112,163 -292,272 -469,354 -202,95 -418,165 -627,245 -321,122 -682,279 -871,581l-40 64 -40 -65z"/>
  <path fill="#EB6120" d="M2121 4655c493,-789 2061,-619 2076,-1542 -2,-897 -662,-1355 -130,-2393l-730 -664c-837,410 -1571,417 -2414,0l-746 664c532,1038 -128,1496 -130,2393 15,923 1583,753 2074,1542z"/>
  <g>
   <path fill="#2B2A29" d="M2120 4471c-453,-706 -1935,-537 -1948,-1373 2,-861 667,-1317 144,-2338l615 -561c350,160 841,301 1190,298l0 -1c351,2 842,-136 1192,-297l620 561c-522,1022 142,1477 144,2338 -13,836 -1501,667 -1954,1373l-2 3 -1 -3z"/>
   <path id="1" fill="#FEFEFE" fill-rule="nonzero" d="M153 3098l37 0 0 0 6 74 13 67 20 63 28 58 34 53 41 50 46 46 52 43 56 40 62 37 65 35 70 33 72 32 75 30 78 29 79 28 81 28 82 28 82 29 82 29 82 30 81 31 80 34 77 35 76 38 73 40 69 44 66 47 62 52 57 55 52 60 46 65 -31 20 -44 -62 -50 -58 -55 -53 -60 -50 -64 -46 -67 -42 -72 -40 -74 -37 -76 -35 -79 -33 -80 -31 -81 -30 -82 -29 -82 -28 -82 -28 -81 -28 -80 -29 -78 -29 -76 -31 -74 -32 -71 -33 -67 -36 -63 -39 -59 -41 -54 -45 -49 -49 -43 -53 -36 -57 -30 -62 -22 -67 -14 -72 -6 -77 0 -1zm0 1l0 0 0 -1 0 1zm151 -2353l25 27 4 -22 46 95 39 92 33 89 27 86 22 84 16 81 11 79 6 77 2 75 -1 73 -6 72 -9 70 -11 69 -15 68 -16 67 -18 66 -20 66 -21 65 -22 65 -22 65 -23 65 -22 66 -22 66 -20 67 -20 67 -18 69 -17 69 -14 72 -11 73 -9 74 -6 77 -2 78 -37 0 2 -80 6 -78 9 -76 12 -75 14 -72 17 -71 18 -70 20 -68 21 -67 22 -67 22 -65 23 -66 22 -64 22 -65 21 -65 19 -65 18 -65 16 -66 14 -67 12 -67 8 -69 6 -70 1 -71 -2 -73 -6 -75 -11 -77 -15 -79 -21 -82 -27 -84 -32 -87 -39 -91 -45 -93 4 -22zm-4 22l-6 -12 10 -10 -4 22zm644 -556l-615 561 -25 -27 614 -561 21 -3 5 30zm-26 -27l10 -8 11 5 -21 3zm1185 312l37 0 -19 19 -33 -1 -35 -1 -35 -1 -35 -3 -37 -3 -36 -4 -38 -5 -37 -6 -39 -6 -38 -7 -39 -7 -39 -8 -39 -9 -40 -9 -39 -9 -40 -10 -40 -11 -39 -11 -40 -11 -39 -12 -39 -13 -39 -12 -38 -13 -38 -14 -38 -13 -38 -14 -36 -14 -36 -15 -36 -14 -35 -15 -34 -15 -34 -15 16 -33 33 15 34 15 34 14 35 15 36 14 37 14 37 14 37 13 38 13 38 13 38 13 39 12 39 12 39 11 39 11 39 10 40 10 39 10 39 9 39 8 38 8 39 8 38 6 37 6 37 6 37 4 36 4 36 4 35 2 34 2 33 1 33 0 -18 18zm37 0l0 18 -19 1 19 -19zm0 -1l0 1 -37 0 0 -1 18 -18 19 18zm-37 0l0 -19 18 1 -18 18zm1222 -311l-25 27 21 3 -34 15 -34 15 -35 15 -35 15 -37 14 -37 14 -37 14 -38 14 -38 13 -38 13 -39 12 -39 13 -40 11 -39 12 -40 11 -39 10 -40 10 -39 10 -40 9 -39 8 -39 8 -39 7 -39 7 -38 6 -38 5 -38 5 -36 4 -37 3 -36 3 -35 2 -34 1 -34 0 0 -36 33 -1 34 -1 34 -1 35 -3 36 -3 36 -4 37 -5 37 -5 38 -6 38 -7 38 -7 39 -8 39 -8 39 -9 39 -9 39 -10 40 -10 39 -11 39 -12 39 -11 39 -12 38 -13 38 -13 38 -13 37 -13 37 -14 37 -14 36 -14 35 -15 34 -14 34 -15 33 -15 20 3zm-20 -3l11 -5 9 8 -20 -3zm615 591l-620 -561 25 -27 620 561 4 22 -29 5zm25 -27l10 10 -6 12 -4 -22zm151 2353l-37 -1 0 0 -2 -78 -6 -77 -9 -75 -11 -72 -14 -72 -17 -69 -18 -69 -19 -68 -21 -66 -22 -66 -22 -66 -23 -65 -22 -65 -22 -65 -21 -65 -19 -66 -19 -66 -16 -67 -14 -68 -12 -69 -9 -70 -5 -71 -2 -74 2 -75 7 -77 11 -79 16 -81 21 -84 27 -86 33 -89 39 -92 46 -95 33 17 -45 93 -39 91 -32 87 -26 84 -21 82 -16 79 -11 77 -6 75 -2 73 2 72 5 70 9 68 11 68 14 66 16 66 18 65 20 65 21 65 21 65 22 65 23 65 22 65 22 67 21 67 20 68 18 70 17 71 14 72 12 75 9 76 5 78 3 80 0 1zm0 -1l0 1 0 0 0 -1zm-1957 1382l-32 -18 0 -1 47 -65 52 -60 57 -55 62 -52 66 -47 70 -44 73 -40 75 -38 78 -35 80 -34 81 -31 82 -30 83 -29 82 -29 82 -28 82 -28 79 -28 78 -29 76 -30 73 -32 69 -33 66 -35 62 -37 56 -40 52 -43 47 -46 40 -50 35 -53 27 -58 21 -63 13 -67 6 -74 37 1 -6 77 -14 72 -22 67 -30 62 -37 57 -43 53 -49 49 -54 45 -59 41 -64 39 -67 36 -71 33 -74 32 -76 31 -79 29 -80 29 -81 28 -82 28 -83 28 -82 29 -82 30 -80 31 -79 33 -77 35 -74 37 -71 40 -68 42 -64 46 -60 50 -55 53 -50 58 -45 62 1 -1zm-32 -18l0 0 0 -1 0 1zm-2 2l2 -2 32 18 -2 3 -32 0 0 -19zm32 19l-16 26 -16 -26 32 0zm-2 -21l2 2 -32 19 -1 -2 31 -20 0 1zm0 -1l0 1 0 0 0 -1z"/>
  </g>
  <path fill="url(#id0)" d="M2120 4329c-434,-673 -1834,-456 -1847,-1253 1,-250 62,-468 133,-679 162,-480 374,-918 25,-1595l548 -489c336,153 807,287 1142,285l0 -2c337,3 808,-129 1144,-283l548 489c-501,974 156,1453 158,2274 -13,797 -1413,580 -1848,1253l-2 0 -1 0z"/>
  <path fill="#2B2A29" d="M1000 817c17,0 30,5 40,15 11,12 16,30 16,53 0,24 -5,41 -16,53 -10,10 -23,16 -40,16l-66 0 0 18 -53 0 0 -18 -67 0c-17,0 -30,-6 -40,-16 -10,-12 -16,-29 -16,-53 0,-23 6,-41 17,-52 9,-11 23,-16 39,-16l67 0 0 -17 53 0 0 17 66 0zm-119 44l-49 0c-6,0 -11,2 -15,5 -4,5 -6,11 -6,21 0,9 2,16 6,20 4,3 9,5 15,5l49 0 0 -51zm53 0l0 51 48 0c7,0 12,-2 15,-5 4,-4 6,-11 6,-20 0,-10 -2,-16 -6,-20 -3,-4 -8,-6 -15,-6l-48 0zm337 -61l60 0 -62 109c-12,21 -19,33 -21,36 -6,9 -14,16 -22,20 -10,4 -23,7 -40,7l-55 0 0 -45 58 0c4,0 6,0 7,-1 1,0 3,-2 4,-4l-113 -122 74 0 62 72c0,0 1,4 3,10 1,3 1,4 2,4 1,0 1,-2 1,-7 0,-5 1,-9 2,-11l40 -68zm84 45l0 -45 206 0 0 45 -76 0 0 127 -54 0 0 -127 -76 0zm300 58l0 27 92 0c10,0 16,-4 16,-13 0,-5 -2,-9 -4,-11 -3,-2 -7,-3 -12,-3l-92 0zm-54 69l0 -172 199 0 0 42 -145 0 0 23 107 0c19,0 32,4 41,12 9,9 13,21 13,38 0,21 -5,36 -15,45 -9,8 -21,12 -38,12l-162 0zm490 -86c0,42 -5,67 -15,75 -11,9 -44,13 -100,13 -40,0 -67,-1 -79,-4 -16,-4 -26,-12 -30,-24 -3,-10 -5,-30 -5,-60 0,-42 5,-67 15,-75 11,-9 44,-13 99,-13 55,0 88,4 99,13 11,8 16,33 16,75zm-176 0c0,22 3,35 8,38 5,4 23,6 53,6 31,0 49,-2 54,-6 5,-3 8,-16 8,-38 0,-22 -3,-35 -8,-38 -5,-4 -23,-6 -53,-6 -31,0 -49,2 -54,6 -5,3 -8,16 -8,38zm441 -86l0 172 -53 0 0 -127 -95 0c0,49 -4,83 -13,102 -8,16 -21,25 -40,25l-26 0 0 -45c13,0 20,-5 23,-16 2,-10 3,-47 3,-111l201 0zm54 172l0 -172 54 0 0 42 77 0c28,0 47,4 56,10 12,9 17,27 17,55 0,28 -5,46 -17,54 -9,7 -28,11 -56,11l-131 0zm54 -85l0 40 77 0c6,0 11,-1 14,-4 4,-3 6,-8 6,-16 0,-8 -2,-13 -6,-16 -3,-3 -8,-4 -14,-4l-77 0zm191 -87l53 0 0 60 115 0 0 -60 54 0 0 172 -54 0 0 -67 -115 0 0 67 -53 0 0 -172zm502 0l54 0 0 172 -54 0 0 -172zm-233 172l0 -172 54 0 0 42 77 0c28,0 47,4 56,11 11,8 17,26 17,54 0,28 -5,46 -17,54 -9,7 -28,11 -56,11l-131 0zm54 -85l0 40 77 0c6,0 11,-1 14,-4 4,-3 6,-8 6,-16 0,-8 -2,-13 -5,-16 -4,-3 -9,-4 -15,-4l-77 0zm274 -87l53 0 0 118c-1,5 -2,9 -4,13 0,2 0,4 0,5 1,0 2,-1 3,-3 2,-2 3,-4 3,-6l92 -127 87 0 0 171 -53 0 0 -118c0,0 1,-4 4,-13 0,-2 0,-3 0,-5 -1,0 -2,1 -3,3 -1,3 -2,5 -3,7l-92 126 -87 0 0 -171zm165 -33l-86 0 0 24 86 0 0 -24zm-1793 265l53 0 0 59 28 0 61 -59 73 0 -87 81 98 90 -77 0 -68 -67 -28 0 0 67 -53 0 0 -171zm489 -1l0 172 -54 0 0 -127 -94 0c0,49 -5,83 -13,102 -8,16 -22,25 -41,25l-25 0 0 -45c13,0 20,-5 22,-15 2,-11 3,-48 3,-112l202 0zm221 0l61 0 -62 109c-12,21 -19,33 -21,36 -6,9 -14,16 -22,20 -10,4 -23,7 -40,7l-55 0 0 -45 58 0c3,0 6,0 7,-1 1,0 3,-2 4,-4l-113 -122 74 0 61 72c1,0 2,4 4,10 1,3 1,4 2,4 1,0 1,-2 1,-7 0,-5 1,-9 2,-11l39 -68zm143 103l0 27 93 0c10,0 15,-4 15,-13 0,-5 -1,-9 -4,-11 -2,-2 -6,-3 -12,-3l-92 0zm-53 69l0 -172 198 0 0 42 -145 0 0 23 108 0c18,0 32,4 40,12 9,9 13,21 13,38 0,21 -5,36 -15,45 -8,8 -21,12 -38,12l-161 0z"/>
  <path fill="#EB6120" d="M2120 4329c-205,-318 -623,-440 -1012,-561 676,0 1352,0 2028,0 -390,121 -808,243 -1013,561l-2 0 -1 0zm-1126 -597c-103,-34 -203,-69 -293,-109 947,0 1895,0 2842,0 -91,40 -190,75 -293,109 -752,0 -1504,0 -2256,0zm-393 -157c-54,-29 -103,-60 -147,-96 1112,0 2224,0 3336,0 -44,36 -93,67 -147,96 -1014,0 -2028,0 -3042,0zm-213 -157c-24,-25 -45,-53 -64,-83 1199,0 2397,0 3596,0 -19,30 -40,58 -64,83 -1156,0 -2312,0 -3468,0zm-101 -156c-10,-23 -17,-46 -23,-71 1239,0 2477,0 3716,0 -6,25 -14,48 -23,71 -1223,0 -2447,0 -3670,0zm-37 -157c-1,-15 -2,-30 -3,-46 0,-4 0,-8 0,-13 1250,0 2500,0 3750,0 0,5 0,9 0,13 -1,16 -2,31 -3,46 -1248,0 -2496,0 -3744,0zm1 -156c2,-16 3,-31 4,-47 1245,0 2489,0 3733,0 2,16 3,31 5,47 -1248,0 -2495,0 -3742,0zm19 -157c2,-11 4,-23 6,-34 1231,0 2461,0 3692,0 2,11 4,23 6,34 -1235,0 -2469,0 -3704,0zm33 -156c2,-8 4,-15 5,-22 1210,0 2419,0 3628,0 1,7 3,14 5,22 -1213,0 -2425,0 -3638,0zm44 -157c1,-3 2,-6 3,-9 1181,-1 2363,-1 3544,0 1,3 2,6 3,9 -1183,0 -2367,0 -3550,0z"/>
  <path fill="#2B2A29" fill-rule="nonzero" d="M1452 3409c-43,-182 -7,-366 85,-514 93,-148 243,-262 427,-305 185,-43 370,-7 519,84 150,92 265,240 309,422 43,183 7,366 -85,514 -93,148 -242,261 -427,304 -184,43 -369,8 -519,-83 -150,-92 -265,-240 -309,-422zm94 -509c-92,146 -127,327 -84,507 43,179 156,325 304,415 148,91 330,125 512,83 182,-42 329,-154 420,-300 92,-146 127,-327 84,-506 -43,-180 -156,-326 -304,-417 -147,-90 -330,-125 -512,-82 -181,42 -329,154 -420,300z"/>
  <path fill="#FEFEFE" fill-rule="nonzero" d="M1546 2900c-92,146 -127,327 -84,507 43,179 156,325 304,415 148,91 330,125 512,83 182,-42 329,-154 420,-300 92,-146 127,-327 84,-506 -43,-180 -156,-326 -304,-417 -147,-90 -330,-125 -512,-82 -181,42 -329,154 -420,300z"/>
  <path fill="#EBECEC" d="M2718 3581c-90,160 -245,283 -439,329 -27,6 -54,10 -80,13l-70 -147c3,-17 5,-33 7,-49l-64 199c-289,-22 -545,-225 -615,-518 -51,-214 8,-430 141,-587l59 73c-114,80 -126,338 25,512 18,188 161,396 456,301 7,-68 3,-131 -2,-212 38,321 312,405 582,86zm-401 -298l-52 -174c104,118 171,171 326,238 -89,-17 -181,-38 -274,-64zm-303 -192c-71,-83 -141,-160 -199,-251 64,57 140,117 231,155l225 11 -257 85z"/>
  <path fill="#2B2A29" fill-rule="nonzero" d="M2223 3920c-72,11 -143,10 -212,-2 -36,-28 -67,-61 -91,-96 -50,-15 -97,-38 -140,-68 -37,-26 -70,-59 -98,-98 -43,3 -88,-9 -126,-25 -45,-66 -79,-142 -99,-223 -8,-36 -14,-72 -16,-108 13,-36 32,-62 70,-98 4,-42 13,-88 29,-132 13,-40 31,-79 54,-116 -9,-35 -13,-74 -13,-113 69,-88 159,-160 265,-207 35,2 71,8 109,19 44,-10 91,-11 139,-9 41,3 83,8 126,14 50,-17 98,-31 151,-34 75,29 145,72 205,125 24,54 39,115 39,171 17,33 33,66 46,100 13,34 25,69 35,104 39,54 80,98 108,161 -5,99 -32,194 -77,280 -40,15 -81,25 -121,29 -7,6 -13,11 -19,17 -67,62 -132,122 -218,169 -42,58 -58,78 -124,128l-22 12zm-85 -218c3,-33 4,-65 4,-98 -1,-35 -4,-69 -8,-103l5 -1c4,34 7,69 8,104 1,31 -1,63 -4,95 64,32 127,93 225,75 85,-46 149,-105 216,-167 5,-5 11,-11 17,-16 10,-85 8,-167 -18,-244 -35,-4 -72,-11 -109,-20 -34,-8 -69,-18 -100,-29 -34,53 -140,129 -238,201 -117,-46 -206,-112 -274,-195l-174 107c-16,66 -26,144 -5,238 28,41 62,74 100,101 41,29 86,50 133,65 0,0 -1,0 -1,-1 85,-17 158,-62 223,-112zm-622 -500c30,81 112,146 170,204l175 -107c21,-104 27,-190 95,-275 -20,-23 -40,-45 -59,-69 -27,-33 -53,-66 -76,-100 -71,9 -149,43 -225,105 -21,35 -38,73 -52,111 -15,45 -24,89 -28,131zm444 -545c-65,58 -102,121 -133,198 0,0 0,0 0,0 23,33 48,65 74,97 19,23 38,46 58,68 1,-1 3,-3 4,-4 134,-36 281,-27 303,-19 63,127 89,194 109,296 31,11 65,21 101,29 36,9 73,16 108,20 50,-50 95,-116 109,-211 -11,-37 -23,-73 -37,-109 -12,-32 -27,-63 -43,-94 -73,-47 -159,-63 -241,-74 -14,18 -28,35 -41,53 -22,30 -43,61 -63,91l-4 -3c20,-30 41,-61 63,-91 13,-18 27,-35 41,-52 -26,-63 -60,-134 -140,-188 -45,-6 -90,-12 -134,-15 -47,-2 -92,-1 -134,8z"/>
  <g>
   <polygon fill="#2B2A29" points="874,2804 864,2803 854,2802 844,2801 835,2800 825,2798 816,2797 806,2795 797,2793 787,2791 778,2788 769,2786 690,2761 687,2299 743,2341 682,2226 679,2220 677,2215 674,2210 576,2210 576,1878 1278,1878 1278,1686 1653,1686 1677,1686 1701,1686 1724,1687 1746,1689 1768,1691 1789,1693 1810,1696 1829,1699 1849,1703 1868,1707 1886,1712 1904,1718 1921,1724 1938,1731 1954,1739 1970,1747 1987,1758 2004,1770 2019,1784 2034,1798 2047,1814 2059,1830 2066,1841 2094,1755 2063,1755 2063,1422 2648,1422 2711,1648 2815,1675 2816,1670 2817,1663 2818,1655 2819,1646 2820,1636 2821,1625 2821,1614 2822,1601 2823,1588 2823,1575 2824,1560 2824,1545 2824,1528 2824,1512 2824,1502 2742,1502 2742,1170 3590,1170 3590,1502 3525,1502 3525,1747 3591,1747 3591,2080 3054,2080 3054,2040 3049,2043 3037,2052 3025,2060 3011,2067 2998,2074 2984,2079 2970,2084 2955,2088 2941,2091 2926,2094 2911,2096 2896,2097 2884,2097 2884,2333 1931,2333 1931,2305 1926,2307 1906,2313 1886,2319 1865,2324 1845,2328 1845,2596 1278,2596 1278,2477 1276,2480 1267,2504 1257,2527 1248,2548 1238,2569 1229,2588 1219,2607 1209,2625 1200,2642 1190,2658 1180,2673 1169,2688 1159,2702 1147,2715 1135,2728 1124,2738 1112,2747 1100,2756 1088,2764 1075,2771 1061,2777 1047,2783 1034,2788 1019,2792 1005,2796 991,2799 976,2801 961,2803 946,2804 931,2805 916,2805 905,2805 895,2805 884,2804 "/>
   <path id="1" fill="#EB6120" fill-rule="nonzero" d="M866 2785l10 0 -3 37 -10 -1 0 0 3 -36zm-3 36l0 0 0 0 0 0zm-7 -37l10 1 -3 36 -10 -1 -1 0 4 -36zm-3 36l0 0 -1 0 1 0zm-6 -37l9 1 -4 36 -10 -1 0 0 5 -36zm-5 36l0 0 0 0 0 0zm-5 -37l10 1 -5 36 -10 -1 0 0 5 -36zm-5 36l0 0 0 0 0 0zm-4 -38l10 2 -6 36 -10 -2 0 0 6 -36zm-6 36l0 0 0 0 0 0zm-3 -37l9 1 -6 36 -10 -1 0 0 7 -36zm-7 36l0 0 0 0 0 0zm-3 -38l10 2 -7 36 -10 -2 0 0 7 -36zm-7 36l0 0 0 0 0 0zm-2 -38l10 2 -8 36 -9 -2 -1 0 8 -36zm-7 36l-1 0 0 0 1 0zm-1 -38l9 2 -9 36 -9 -3 0 0 9 -35zm-9 35l0 0 0 0 0 0zm0 -38l9 3 -9 35 -10 -2 0 0 10 -36zm-10 36l0 0 0 0 0 0zm1 -38l9 3 -10 35 -9 -3 -1 0 11 -35zm-10 35l-1 0 0 0 1 0zm-69 -60l79 25 -11 35 -79 -25 -13 -17 24 -18zm-11 35l-13 -4 0 -13 13 17zm22 -479l2 462 -37 0 -2 -462 29 -14 8 14zm-37 0l-1 -37 30 23 -29 14zm63 57l-56 -42 22 -29 56 41 5 6 -27 24zm27 -24l39 73 -66 -49 27 -24zm-60 -114l60 114 -32 17 -61 -114 0 -1 33 -16zm-33 17l0 0 0 -1 0 1zm30 -23l3 6 -33 16 -3 -6 0 0 33 -16zm-33 16l0 0 0 0 0 0zm30 -21l3 5 -33 16 -3 -5 33 -16 0 0zm0 0l0 0 0 -1 0 1zm-2 -5l2 5 -33 16 -2 -5 16 -26 17 10zm-17 -10l12 0 5 10 -17 -10zm-98 0l98 0 0 36 -98 0 -19 -18 19 -18zm0 36l-19 0 0 -18 19 18zm18 -350l0 332 -37 0 0 -332 19 -19 18 19zm-37 0l0 -19 19 0 -19 19zm721 18l-702 0 0 -37 702 0 18 19 -18 18zm18 -18l0 18 -18 0 18 -18zm0 -192l0 192 -37 0 0 -192 19 -19 18 19zm-37 0l0 -19 19 0 -19 19zm394 18l-375 0 0 -37 375 0 1 0 -1 37zm0 -37l1 0 0 0 -1 0zm24 37l-24 0 1 -37 23 0 1 0 -1 37zm0 -37l1 0 0 0 -1 0zm23 38l-23 -1 1 -37 23 1 1 0 -2 37zm1 -37l1 0 0 0 -1 0zm22 38l-23 -1 2 -37 23 1 0 0 -2 37zm2 -37l0 0 0 0 0 0zm20 38l-22 -1 2 -37 22 1 1 1 -3 36zm2 -37l1 0 0 1 -1 -1zm19 39l-21 -2 3 -36 22 1 0 0 -4 37zm4 -37l0 0 0 0 0 0zm17 39l-21 -2 4 -37 21 3 1 0 -5 36zm4 -36l0 0 1 0 -1 0zm16 39l-20 -3 5 -36 20 3 1 0 -6 36zm5 -36l0 0 1 0 -1 0zm14 39l-20 -3 7 -36 20 3 0 0 -7 36zm7 -36l0 0 0 0 0 0zm12 40l-19 -4 7 -36 19 4 1 0 -8 36zm7 -36l1 0 0 0 -1 0zm11 40l-18 -4 8 -36 19 4 0 0 -9 36zm9 -36l0 0 0 0 0 0zm9 41l-18 -5 9 -36 19 5 0 1 -10 35zm10 -36l0 0 0 1 0 -1zm7 41l-18 -5 11 -35 18 5 1 0 -12 35zm11 -35l1 0 0 0 -1 0zm6 41l-18 -6 13 -35 17 7 1 0 -13 34zm12 -34l1 0 0 0 -1 0zm4 41l-17 -7 14 -34 17 7 1 0 -15 34zm14 -34l0 0 1 0 -1 0zm1 41l-16 -8 16 -33 16 8 1 0 -17 33zm16 -33l1 0 0 0 -1 0zm-1 41l-16 -8 18 -33 16 9 1 1 -19 31zm18 -32l1 1 0 0 -1 -1zm-2 43l-17 -11 20 -31 17 11 1 0 -21 31zm20 -31l1 0 0 0 -1 0zm-4 42l-17 -12 22 -30 17 13 1 0 -23 29zm22 -29l0 0 1 0 -1 0zm-8 41l-15 -13 24 -28 15 14 1 1 -25 26zm24 -27l1 0 0 1 -1 -1zm-10 41l-15 -14 26 -26 15 14 1 1 -27 25zm26 -26l1 1 0 0 -1 -1zm-14 40l-13 -15 28 -24 13 16 1 1 -29 22zm28 -23l1 0 0 1 -1 -1zm-17 39l-12 -17 30 -21 12 16 1 1 -31 21zm30 -22l1 1 0 0 -1 -1zm-23 32l-7 -11 31 -20 7 12 2 15 -33 4zm33 -4l-12 38 -21 -34 33 -4zm27 -87l-27 87 -35 -11 27 -87 18 -12 17 23zm-17 -23l25 0 -8 23 -17 -23zm-31 0l31 0 0 36 -31 0 -18 -18 18 -18zm0 36l-18 0 0 -18 18 18zm19 -351l0 333 -37 0 0 -333 18 -18 19 18zm-37 0l0 -18 18 0 -18 18zm603 19l-585 0 0 -37 585 0 18 14 -18 23zm0 -37l15 0 3 14 -18 -14zm45 249l-62 -226 35 -9 63 226 -22 22 -14 -13zm14 13l-11 -2 -3 -11 14 13zm103 26l-103 -26 9 -35 103 26 14 21 -23 14zm23 -14l-3 19 -20 -5 23 -14zm1 -5l-1 5 -37 -6 1 -5 37 6 0 0zm0 0l0 0 0 0 0 0zm1 -7l-1 7 -37 -6 1 -7 37 5 0 1zm0 -1l0 0 0 1 0 -1zm1 -8l-1 8 -37 -5 1 -8 37 5 0 0zm0 0l0 0 0 0 0 0zm1 -9l-1 9 -37 -4 1 -9 37 4 0 0zm0 0l0 0 0 0 0 0zm1 -10l-1 10 -37 -4 1 -10 37 3 0 1zm0 -1l0 1 0 0 0 -1zm1 -10l-1 10 -37 -3 1 -10 37 2 0 1zm0 -1l0 1 0 0 0 -1zm1 -11l-1 11 -37 -2 1 -12 37 3 0 0zm0 0l0 0 0 0 0 0zm1 -12l-1 12 -37 -2 1 -13 37 2 0 1zm0 -1l0 1 0 0 0 -1zm0 -13l0 13 -37 -1 0 -13 37 1 0 0zm0 0l0 0 0 0 0 0zm1 -14l-1 14 -37 -1 1 -14 37 1 0 0zm0 0l0 0 0 0 0 0zm0 -15l0 15 -37 -1 0 -15 37 1 0 0zm0 0l0 0 0 0 0 0zm1 -15l-1 15 -37 -1 0 -15 38 1 0 0zm0 0l0 0 0 0 0 0zm0 -16l0 16 -38 -1 1 -16 37 1 0 0zm0 0l0 0 0 -1 0 1zm0 -17l0 17 -37 -1 0 -16 37 0 0 0zm0 0l0 0 0 0 0 0zm0 -10l0 10 -37 0 0 -10 18 -18 19 18zm-19 -18l19 0 0 18 -19 -18zm-82 0l82 0 0 36 -82 0 -19 -18 19 -18zm0 36l-19 0 0 -18 19 18zm18 -350l0 332 -37 0 0 -332 19 -19 18 19zm-37 0l0 -19 19 0 -19 19zm867 18l-848 0 0 -37 848 0 19 19 -19 18zm0 -37l19 0 0 19 -19 -19zm-18 351l0 -332 37 0 0 332 -19 18 -18 -18zm37 0l0 18 -19 0 19 -18zm-84 -18l65 0 0 36 -65 0 -19 -18 19 -18zm-19 18l0 -18 19 0 -19 18zm0 245l0 -245 37 0 0 245 -18 19 -19 -19zm19 19l-19 0 0 -19 19 19zm66 0l-66 0 0 -37 66 0 19 18 -19 19zm0 -37l19 0 0 18 -19 -18zm-18 351l0 -333 37 0 0 333 -19 18 -18 -18zm37 0l0 18 -19 0 19 -18zm-556 -19l537 0 0 37 -537 0 -19 -18 19 -19zm0 37l-19 0 0 -18 19 18zm18 -58l0 40 -37 0 0 -40 7 -14 30 14zm-30 -14l30 -25 0 39 -30 -14zm-4 3l4 -3 23 28 -4 3 -1 1 -22 -29zm23 28l0 1 -1 0 1 -1zm-35 -20l12 -9 22 30 -12 9 -1 0 -21 -30zm22 30l0 0 -1 0 1 0zm-33 -22l12 -8 20 30 -12 9 -1 0 -19 -31zm20 31l-1 0 0 0 1 0zm-33 -25l14 -7 18 32 -14 7 -1 1 -17 -33zm18 32l0 1 -1 0 1 -1zm-30 -26l13 -6 16 33 -13 6 -1 1 -15 -34zm16 33l-1 1 0 0 1 -1zm-29 -28l14 -5 14 34 -14 5 -1 1 -13 -35zm14 34l0 1 -1 0 1 -1zm-27 -29l14 -5 12 35 -14 5 -1 0 -11 -35zm12 35l-1 0 0 0 1 0zm-26 -31l15 -4 10 35 -15 4 -1 0 -9 -35zm10 35l0 0 -1 0 1 0zm-23 -32l14 -4 8 36 -14 3 -1 1 -7 -36zm8 35l-1 0 0 1 1 -1zm-22 -33l15 -3 6 37 -15 2 -1 0 -5 -36zm6 36l0 0 -1 0 1 0zm-20 -35l15 -1 4 36 -15 2 0 0 -4 -37zm4 37l0 0 0 0 0 0zm-18 -36l15 -1 3 37 -15 1 -1 0 -2 -37zm3 37l-1 0 0 0 1 0zm-14 -36l12 -1 1 37 -12 0 -19 -18 18 -18zm-18 18l0 -18 18 0 -18 18zm0 236l0 -236 37 0 0 236 -19 18 -18 -18zm37 0l0 18 -19 0 19 -18zm-972 -19l953 0 0 37 -953 0 -18 -18 18 -19zm0 37l-18 0 0 -18 18 18zm19 -46l0 28 -37 0 0 -28 11 -17 26 17zm-26 -17l26 -10 0 27 -26 -17zm-5 2l5 -2 14 34 -5 2 -1 0 -13 -34zm14 34l0 0 -1 0 1 0zm-33 -28l20 -6 12 34 -20 7 -1 0 -11 -35zm12 35l0 0 -1 0 1 0zm-31 -29l20 -6 10 35 -20 6 -1 0 -9 -35zm10 35l0 0 -1 0 1 0zm-31 -31l22 -5 8 36 -21 5 -1 0 -8 -36zm9 36l0 0 -1 0 1 0zm-28 -32l20 -4 7 36 -19 4 -22 -18 14 -18zm-14 18l0 -15 14 -3 -14 18zm0 268l0 -268 37 0 0 268 -19 18 -18 -18zm37 0l0 18 -19 0 19 -18zm-586 -19l567 0 0 37 -567 0 -19 -18 19 -19zm0 37l-19 0 0 -18 19 18zm18 -137l0 119 -37 0 0 -119 1 -7 36 7zm-36 -7l36 -91 0 98 -36 -7zm-1 4l1 -4 35 14 -2 3 0 0 -34 -13zm34 13l0 0 0 0 0 0zm-44 10l10 -23 34 13 -9 24 0 0 -35 -14zm35 14l0 0 0 0 0 0zm-44 8l10 -22 34 14 -10 23 0 0 -34 -15zm34 15l0 0 0 0 0 0zm-43 7l9 -22 34 15 -9 21 -1 1 -33 -15zm34 14l-1 1 0 0 1 -1zm-44 6l10 -21 33 16 -9 20 0 1 -34 -16zm34 15l0 0 0 1 0 -1zm-43 4l9 -19 34 16 -10 19 0 1 -33 -17zm33 16l0 0 0 1 0 -1zm-43 3l10 -19 33 17 -9 18 -1 1 -33 -17zm34 16l-1 0 0 1 1 -1zm-43 1l10 -18 32 18 -9 18 0 0 -33 -18zm33 18l0 0 0 0 0 0zm-42 -1l9 -17 33 18 -10 17 0 0 -32 -18zm32 18l0 0 0 0 0 0zm-42 -2l10 -17 32 19 -10 16 -1 1 -31 -19zm32 18l0 1 -1 0 1 -1zm-42 -4l10 -15 31 20 -10 15 0 1 -31 -21zm31 20l0 1 0 0 0 -1zm-41 -6l11 -14 30 21 -10 14 -1 1 -30 -22zm31 21l-1 1 0 0 1 -1zm-41 -7l11 -14 29 22 -11 14 0 1 -29 -23zm29 22l0 0 0 1 0 -1zm-40 -10l11 -13 29 24 -12 13 0 1 -28 -25zm28 24l0 0 0 1 0 -1zm-39 -12l12 -13 27 26 -12 12 -1 1 -26 -26zm27 25l-1 1 0 0 1 -1zm-37 -16l11 -10 25 27 -11 10 -1 1 -24 -28zm25 27l-1 1 0 0 1 -1zm-36 -18l11 -10 24 29 -12 9 -1 1 -22 -29zm23 28l0 1 -1 0 1 -1zm-35 -20l13 -9 21 30 -12 9 -1 0 -21 -30zm22 30l0 0 -1 0 1 0zm-33 -23l12 -8 20 31 -12 8 -1 1 -19 -32zm20 31l-1 0 0 1 1 -1zm-32 -24l13 -7 18 32 -13 7 -1 0 -17 -32zm18 32l-1 0 0 0 1 0zm-31 -26l14 -7 16 33 -14 7 -1 0 -15 -33zm16 33l0 0 -1 0 1 0zm-29 -28l14 -6 14 34 -13 6 -1 0 -14 -34zm15 34l-1 0 0 0 1 0zm-28 -29l14 -5 13 34 -14 5 -1 0 -12 -34zm13 34l-1 0 0 0 1 0zm-26 -30l14 -5 11 35 -14 5 -1 0 -10 -35zm11 35l-1 0 0 0 1 0zm-25 -32l15 -4 9 36 -14 3 -1 1 -9 -36zm10 35l-1 0 0 1 1 -1zm-23 -32l14 -3 8 36 -15 3 -1 0 -6 -36zm7 36l0 0 -1 0 1 0zm-21 -34l15 -2 5 36 -14 2 -1 0 -5 -36zm6 36l-1 0 0 0 1 0zm-20 -34l15 -2 4 36 -15 2 -1 0 -3 -36zm4 36l0 0 -1 0 1 0zm-19 -35l15 -1 3 36 -15 1 0 0 -3 -36zm3 36l0 0 0 0 0 0zm-17 -36l15 0 2 36 -15 1 -1 0 -1 -37zm2 37l-1 0 0 0 1 0zm-17 -36l15 -1 1 37 -15 0 0 0 -1 -36zm1 36l0 0 0 0 0 0zm-11 -36l11 0 0 36 -11 0 -1 0 1 -36zm0 36l0 0 -1 0 1 0zm-10 -37l10 1 -1 36 -10 0 0 0 1 -37zm-1 37l0 0 0 0 0 0zm-9 -37l10 0 -1 37 -10 0 -1 0 2 -37zm-1 37l0 0 -1 0 1 0zm-9 -38l11 1 -3 37 -10 -1 0 0 2 -37zm-2 37l0 0 0 0 0 0z"/>
  </g>
  <g>
   <path fill="#FEFEFE" d="M1363 2109c-36,0 -58,9 -66,25 -8,21 -14,40 -21,57l-76 204c-50,134 -95,221 -136,260 -34,33 -83,49 -149,49 -47,0 -88,-6 -124,-17l-1 -184c16,12 33,20 50,25 9,3 19,4 28,4 18,0 32,-3 43,-9 11,-5 20,-16 27,-32l-165 -311c-7,-13 -14,-27 -20,-40 -13,-21 -30,-31 -53,-31l-22 0 0 -130 350 0 0 130 -12 0c-7,0 -12,1 -16,3 -5,1 -7,6 -7,14 0,6 2,12 5,18 3,6 5,10 6,13l74 140 48 -127c4,-12 7,-21 10,-29 2,-9 3,-14 3,-16 0,-6 -2,-11 -5,-13 -4,-2 -12,-3 -25,-3l-13 0 0 -130 267 0 0 130zm648 -84c0,69 -20,121 -61,155 -49,40 -143,61 -282,61l0 84c0,18 3,29 8,33 5,4 15,6 29,6l38 0 0 131 -363 0 0 -131 39 0c13,0 21,-2 25,-5 7,-5 10,-17 10,-34l0 -369c0,-14 -1,-24 -5,-30 -4,-6 -14,-9 -30,-9l-39 0 0 -131 273 0c123,0 211,16 265,48 62,36 93,100 93,191zm-231 -13c0,-32 -10,-53 -29,-65 -20,-12 -47,-18 -83,-18l0 169c38,0 67,-7 85,-20 18,-13 27,-35 27,-66zm1002 220l-341 0 0 -131 24 0c10,0 17,-1 21,-2 5,-1 7,-6 7,-14 0,-3 -1,-6 -1,-9 -3,-10 -5,-18 -6,-24l-212 0c-1,5 -3,9 -4,13 -1,3 -2,7 -2,11 0,10 3,17 8,20 6,3 13,5 21,5l11 0 0 131 -275 0 0 -131 17 0c18,0 32,-5 40,-17 8,-11 17,-34 28,-69l100 -313c5,-19 8,-30 8,-34 0,-5 -3,-8 -8,-10 -5,-3 -17,-4 -35,-4l-18 0 0 -131 406 0 144 518c5,18 8,30 11,36 8,16 21,24 41,24l15 0 0 131zm-338 -323l-58 -202 -5 0 -62 202 125 0zm1045 70l-333 0 0 -131 12 0c13,0 22,-1 28,-5 9,-5 13,-17 13,-36l0 -394 -116 0c0,171 -8,300 -25,389 -12,60 -30,106 -55,136 -32,39 -75,58 -131,58 -13,0 -24,-1 -33,-2 -20,-4 -40,-10 -61,-20l0 -202c6,2 15,4 28,6 13,3 22,4 28,4 35,0 58,-26 69,-79 9,-41 14,-110 14,-209l0 -33c0,-23 -2,-39 -7,-47 -4,-9 -17,-13 -38,-13l-38 0 0 -130 644 0 0 130 -24 0c-20,0 -33,5 -38,16 -2,4 -3,13 -3,27l0 362c0,19 3,30 10,35 6,5 16,7 31,7l25 0 0 131z"/>
   <path id="1" fill="#EB6120" fill-rule="nonzero" d="M1314 2141l-35 -13 1 -1 1 -3 2 -2 1 -3 2 -2 2 -2 2 -2 2 -2 2 -2 2 -1 2 -2 2 -1 3 -2 2 -1 3 -1 2 -2 3 -1 3 -1 2 0 3 -1 3 -1 3 -1 3 0 3 -1 3 0 3 -1 4 0 3 0 3 -1 4 0 3 0 4 0 3 0 0 36 -3 1 -3 0 -3 0 -2 0 -3 0 -3 0 -2 1 -2 0 -3 0 -2 1 -2 0 -2 1 -2 0 -2 1 -1 0 -2 1 -1 0 -1 1 -2 0 -1 1 -1 1 -1 0 -1 1 0 0 -1 1 -1 1 0 0 -1 1 0 0 -1 1 0 1 0 0 0 -1zm-35 -13l1 -1 0 0 -1 1zm15 69l-35 -12 0 0 1 -2 0 -1 1 -2 0 -1 1 -2 1 -2 0 -1 1 -2 0 -2 1 -1 1 -2 0 -2 1 -2 0 -1 1 -2 1 -2 0 -2 1 -1 1 -2 0 -2 1 -2 1 -2 0 -2 1 -1 1 -2 0 -2 1 -2 1 -2 0 -2 1 -2 1 -2 0 -2 35 13 0 2 -1 1 -1 2 0 2 -1 2 -1 2 -1 2 0 2 -1 2 -1 2 0 1 -1 2 0 2 -1 2 -1 2 0 1 -1 2 -1 2 0 2 -1 1 -1 2 0 2 -1 2 0 1 -1 2 -1 2 0 1 -1 2 0 2 -1 1 -1 2 0 1 0 0zm0 0l0 0 0 1 0 -1zm-112 192l77 -204 35 12 -77 205 -35 -13 0 0zm0 0l0 0 1 -1 -1 1zm-105 280l-26 -27 0 0 3 -3 4 -4 3 -4 4 -4 3 -5 4 -5 4 -5 4 -5 4 -6 4 -6 4 -7 4 -6 4 -7 4 -8 4 -7 4 -8 4 -8 4 -8 4 -9 5 -9 4 -9 4 -10 5 -9 4 -10 5 -11 4 -10 4 -11 5 -11 5 -12 4 -12 5 -12 4 -12 35 13 -5 12 -4 12 -5 12 -5 12 -4 11 -5 12 -4 10 -5 11 -4 10 -5 10 -4 10 -5 10 -4 9 -4 9 -5 9 -4 8 -5 8 -4 8 -4 8 -4 7 -5 7 -4 7 -4 7 -4 6 -5 6 -4 6 -4 6 -4 5 -5 5 -4 5 -4 4 -4 4 0 1zm0 -1l0 1 0 -1 0 0zm-162 54l0 -36 0 0 6 0 6 -1 5 0 6 0 5 0 6 -1 5 -1 5 0 5 -1 5 -1 4 -1 5 -1 5 -1 4 -1 4 -1 5 -2 4 -1 4 -1 4 -2 4 -2 3 -1 4 -2 4 -2 3 -2 3 -2 4 -2 3 -2 3 -3 3 -2 3 -3 3 -2 3 -3 26 27 -4 3 -4 3 -3 3 -4 3 -4 3 -5 3 -4 3 -4 2 -4 3 -5 2 -4 3 -5 2 -5 2 -5 2 -5 2 -5 1 -5 2 -5 1 -5 2 -6 1 -5 1 -6 1 -5 1 -6 1 -6 1 -6 1 -6 0 -6 1 -6 0 -6 0 -6 0 -7 0 0 0zm-142 -35l37 0 -13 -18 3 1 4 1 3 1 3 1 3 1 4 1 3 1 3 0 4 1 3 1 4 1 3 0 4 1 3 0 4 1 4 1 3 0 4 1 4 0 4 0 4 1 3 0 4 0 4 1 4 0 4 0 4 0 4 0 5 1 4 0 4 0 4 0 0 36 -4 0 -5 0 -4 0 -5 0 -4 0 -4 0 -5 -1 -4 0 -4 0 -5 0 -4 -1 -4 0 -4 -1 -4 0 -4 -1 -5 0 -4 -1 -4 0 -4 -1 -3 -1 -4 0 -4 -1 -4 -1 -4 -1 -4 -1 -3 -1 -4 -1 -4 -1 -3 -1 -4 -1 -4 -1 -3 -1 -13 -17zm13 17l-13 -4 0 -13 13 17zm23 -201l1 184 -37 0 -1 -184 30 -15 7 15zm-37 0l0 -38 30 23 -30 15zm73 7l-11 36 1 0 -2 -1 -2 0 -2 -1 -2 -1 -2 0 -1 -1 -2 -1 -2 0 -2 -1 -1 -1 -2 0 -2 -1 -2 -1 -2 -1 -1 -1 -2 -1 -2 -1 -2 0 -1 -1 -2 -1 -2 -1 -1 -1 -2 -1 -2 -2 -1 -1 -2 -1 -2 -1 -1 -1 -2 -1 -2 -1 -1 -2 -2 -1 23 -29 1 1 2 1 1 1 1 1 1 1 2 1 1 1 1 1 2 1 1 0 1 1 2 1 1 1 1 0 2 1 1 1 1 1 2 0 1 1 1 0 2 1 1 1 1 0 2 1 1 0 1 1 2 0 1 1 1 0 2 1 1 0 2 0 0 0zm0 0l0 0 0 0 0 0zm23 4l0 36 0 0 -1 0 -1 0 -1 0 -1 0 -1 0 -1 0 -1 0 -1 0 -1 0 -1 0 -1 0 -1 0 -2 0 -1 -1 -1 0 -1 0 -1 0 -1 0 -1 0 -1 -1 -1 0 -1 0 -1 0 -1 0 -1 -1 -1 0 -1 0 -1 0 -1 -1 -1 0 -1 0 -2 0 11 -36 0 1 1 0 1 0 1 0 0 0 1 0 1 1 1 0 0 0 1 0 1 0 1 0 0 1 1 0 1 0 1 0 0 0 1 0 1 0 0 0 1 0 1 0 1 0 0 0 1 1 1 0 1 0 0 0 1 0 1 0 0 0 1 0 0 0zm34 -7l18 33 0 0 -2 0 -1 1 -1 1 -2 0 -1 1 -2 0 -1 1 -2 1 -1 0 -2 0 -1 1 -2 0 -1 1 -2 0 -1 0 -2 1 -2 0 -1 0 -2 1 -2 0 -1 0 -2 0 -2 1 -1 0 -2 0 -2 0 -2 0 -2 0 -1 0 -2 0 -2 0 -2 0 0 -36 2 0 1 0 2 0 1 0 1 0 2 -1 1 0 1 0 1 0 2 0 1 0 1 0 1 0 1 -1 1 0 2 0 1 0 1 -1 1 0 1 0 1 0 1 -1 0 0 1 0 1 0 1 -1 1 0 1 0 0 -1 1 0 1 0 0 -1 0 0zm19 -8l33 -17 1 16 -1 1 -1 2 0 2 -1 1 -1 2 -1 2 -1 1 -1 2 -1 1 0 2 -1 1 -1 2 -1 1 -1 2 -1 1 -2 1 -1 2 -1 1 -1 1 -1 1 -1 2 -1 1 -2 1 -1 1 -1 1 -2 1 -1 1 -1 1 -2 1 -1 1 -2 1 -1 1 -18 -33 1 0 1 0 0 -1 1 0 0 0 1 -1 0 0 1 -1 1 0 0 -1 1 0 0 -1 1 -1 0 0 1 -1 1 -1 0 0 1 -1 0 -1 1 -1 0 -1 1 0 1 -1 0 -1 1 -1 0 -1 1 -2 0 -1 1 -1 1 -1 0 -1 1 -2 0 16zm33 -17l4 8 -3 8 -1 -16zm-165 -311l165 311 -33 17 -164 -311 0 0 32 -17zm-32 17l0 0 0 0 0 0zm-20 -39l32 -19 0 1 1 2 0 1 1 1 1 1 0 2 1 1 1 1 0 1 1 2 1 1 0 1 1 2 0 1 1 1 1 1 0 2 1 1 1 1 0 1 1 2 1 1 0 1 1 1 1 2 0 1 1 1 0 1 1 2 1 1 0 1 1 2 1 1 -33 16 -1 -1 -1 -1 0 -2 -1 -1 -1 -1 0 -1 -1 -2 -1 -1 0 -1 -1 -1 -1 -2 0 -1 -1 -1 0 -2 -1 -1 -1 -1 0 -1 -1 -2 -1 -1 0 -1 -1 -1 -1 -2 0 -1 -1 -1 0 -1 -1 -2 -1 -1 0 -1 -1 -1 -1 -2 0 -1 -1 -1 1 1zm32 -19l0 1 0 0 0 -1zm-69 -3l0 -36 0 0 3 0 3 0 2 0 3 0 2 1 3 0 2 1 3 0 2 1 3 1 2 1 3 1 2 1 2 1 3 1 2 1 2 1 2 2 2 1 2 2 2 1 2 2 2 2 2 2 2 1 1 2 2 2 2 2 1 2 2 3 1 2 2 2 -32 19 -1 -2 -1 -1 -1 -1 -1 -2 -1 -1 -1 -1 -1 -1 -1 -1 -1 -1 -1 -1 -1 -1 -1 -1 -1 0 -1 -1 -1 -1 -1 0 -1 -1 -1 -1 -1 0 -1 -1 -2 0 -1 0 -1 -1 -1 0 -2 0 -1 -1 -1 0 -2 0 -1 0 -1 0 -2 0 -2 -1 0 0zm-22 -36l22 0 0 36 -22 0 -19 -18 19 -18zm0 36l-19 0 0 -18 19 18zm18 -148l0 130 -37 0 0 -130 19 -19 18 19zm-37 0l0 -19 19 0 -19 19zm369 18l-350 0 0 -37 350 0 18 19 -18 18zm0 -37l18 0 0 19 -18 -19zm-19 149l0 -130 37 0 0 130 -18 18 -19 -18zm37 0l0 18 -18 0 18 -18zm-30 -18l12 0 0 36 -12 0 0 0 0 -36zm-10 38l-13 -34 0 0 1 -1 0 0 1 0 1 0 0 -1 1 0 1 0 0 0 1 0 1 0 0 -1 1 0 1 0 1 0 0 0 1 0 1 0 0 0 1 -1 1 0 1 0 0 0 1 0 1 0 0 0 1 0 1 0 1 0 0 0 1 0 1 0 1 0 0 36 -1 1 0 0 -1 0 0 0 0 0 -1 0 0 0 -1 0 0 0 0 0 -1 0 0 0 0 0 0 0 -1 0 0 0 0 0 -1 0 0 0 0 0 0 0 -1 0 0 0 0 0 0 0 -1 0 0 0 0 1 0 0 0 0 -1 0 0 0 0 0zm6 -3l-37 0 0 0 0 -1 0 -1 0 -1 0 -1 0 -1 0 -1 0 -1 0 -1 0 -1 1 -1 0 -1 0 -1 1 -2 0 -1 0 -1 1 -1 0 -1 1 -1 1 -1 0 -1 1 -1 1 -1 1 -1 1 -1 1 -1 1 -1 1 -1 1 -1 1 -1 1 0 2 -1 1 0 13 34 1 0 0 -1 1 0 0 0 1 0 0 -1 0 0 1 0 0 -1 1 0 0 -1 0 0 0 0 0 0 1 -1 0 0 0 0 0 0 0 0 0 0 0 0 0 0 0 0 0 0 0 0 0 0 0 1 0 0 0 0 0 1 0 0 0 0 0 0zm2 9l-33 18 0 0 0 -1 -1 -1 0 -1 0 0 -1 -1 0 -1 0 -1 -1 -1 0 0 0 -1 -1 -1 0 -1 0 -1 0 0 -1 -1 0 -1 0 -1 0 -1 0 -1 -1 0 0 -1 0 -1 0 -1 0 -1 0 -1 0 0 0 -1 0 -1 0 -1 0 -1 0 -1 0 -1 37 0 0 1 0 0 0 0 0 1 0 0 0 0 0 0 0 1 0 0 0 0 0 0 0 1 0 0 0 0 0 1 0 0 0 0 0 0 0 1 0 0 1 0 0 0 0 1 0 0 0 0 0 1 0 0 0 0 1 1 0 0 0 0 0 0 0 0zm7 13l-33 17 0 0 0 0 -1 -1 0 0 0 0 0 0 0 -1 0 0 0 0 -1 -1 0 0 0 0 0 -1 0 0 0 0 -1 -1 0 0 0 0 0 -1 0 0 -1 -1 0 0 0 -1 0 0 -1 0 0 -1 0 0 0 -1 -1 0 0 -1 0 0 0 -1 -1 0 33 -18 0 1 1 1 0 0 0 1 0 0 1 1 0 0 0 1 0 0 1 1 0 0 0 0 0 1 1 0 0 1 0 0 0 0 0 1 1 0 0 1 0 0 0 0 0 1 1 0 0 0 0 1 0 0 0 0 0 1 1 0 0 0 0 1 0 -1zm-33 17l0 0 0 0 0 0zm73 141l-73 -141 33 -17 73 141 1 15 -34 2zm34 -2l-14 38 -20 -36 34 -2zm48 -128l-48 128 -34 -13 48 -128 34 13 0 0zm0 0l0 0 0 0 0 0zm-25 -41l36 11 0 0 -1 0 0 1 0 1 0 1 -1 1 0 1 0 1 -1 0 0 1 0 1 0 1 -1 1 0 1 0 1 -1 1 0 1 0 1 -1 1 0 1 0 1 0 0 -1 1 0 2 -1 0 0 2 0 1 -1 1 0 1 0 1 -1 1 0 1 -1 1 -34 -12 0 -1 0 -1 1 -1 0 -1 0 -1 1 -1 0 -1 0 -1 1 -1 0 -1 0 -1 1 -1 0 -1 0 -1 1 -1 0 -1 0 -1 1 -1 0 0 0 -1 0 -1 1 -1 0 -1 0 -1 0 0 1 -1 0 -1 0 -1 0 0 1 -1 0 -1 0 -1 0 0zm0 0l0 0 0 -1 0 1zm3 -10l37 0 0 0 0 1 0 1 0 1 0 0 0 1 0 0 -1 1 0 0 0 1 0 0 0 1 0 1 0 0 0 1 0 0 -1 1 0 0 0 1 0 1 0 0 0 1 0 0 -1 1 0 1 0 0 0 1 0 1 -1 1 0 0 0 1 0 1 0 1 -36 -11 0 0 0 -1 1 -1 0 0 0 -1 0 -1 0 0 0 -1 1 0 0 -1 0 0 0 -1 0 0 0 -1 0 0 0 -1 0 0 1 0 0 -1 0 0 0 0 0 0 0 -1 0 0 0 0 0 0 0 0 0 0 0 0 0 1 0 0 0 0 0 0zm4 3l18 -32 0 0 1 1 1 0 1 1 1 1 1 1 0 0 1 1 1 1 1 1 1 1 0 1 1 1 0 1 1 1 1 1 0 1 0 1 1 1 0 1 0 1 1 1 0 1 0 1 0 1 0 1 1 1 0 1 0 1 0 1 0 0 0 1 0 1 -37 0 0 0 0 0 0 0 0 -1 0 0 0 0 0 0 0 0 0 0 0 0 0 0 0 0 0 0 0 0 0 0 0 0 0 0 0 1 0 0 0 0 1 0 0 1 0 0 0 0 0 0 1 1 0 0 0 0 1 1 0 0 0 0 1 0 0 0zm-16 -1l0 -36 0 0 1 0 1 0 1 0 2 0 1 0 1 0 1 0 1 0 2 0 1 0 1 0 1 0 1 0 1 1 1 0 1 0 1 0 1 0 1 0 1 0 1 1 1 0 1 0 1 0 0 0 1 1 1 0 1 0 1 1 1 0 2 1 1 0 -18 32 0 0 0 1 1 0 0 0 0 0 0 0 0 0 -1 0 0 0 0 0 0 -1 -1 0 0 0 -1 0 0 0 -1 0 0 0 -1 0 -1 0 0 0 -1 0 -1 0 -1 0 0 0 -1 0 -1 0 -1 0 -1 0 -1 0 -1 0 -1 0 -1 -1 0 0zm-13 -36l13 0 0 36 -13 0 -18 -18 18 -18zm0 36l-18 0 0 -18 18 18zm19 -148l0 130 -37 0 0 -130 18 -19 19 19zm-37 0l0 -19 18 0 -18 19zm285 18l-267 0 0 -37 267 0 19 19 -19 18zm0 -37l19 0 0 19 -19 -19zm-18 149l0 -130 37 0 0 130 -19 18 -18 -18zm37 0l0 18 -19 0 19 -18zm580 85l-24 -28 0 0 3 -3 3 -3 3 -3 3 -3 3 -3 3 -4 3 -3 2 -4 3 -3 2 -4 2 -4 3 -4 2 -4 2 -4 2 -4 1 -4 2 -5 2 -4 1 -5 1 -4 2 -5 1 -5 1 -5 1 -5 1 -6 0 -5 1 -6 1 -5 0 -6 0 -6 0 -6 0 -6 38 0 -1 7 0 7 0 6 -1 7 0 6 -1 6 -1 7 -1 6 -1 6 -1 6 -1 5 -2 6 -1 6 -2 5 -2 6 -2 5 -2 5 -3 6 -2 5 -3 5 -2 5 -3 4 -3 5 -3 5 -4 4 -3 4 -4 5 -3 4 -4 4 -4 4 -4 3 -4 4 0 0zm0 0l0 0 -1 0 1 0zm-275 47l-37 0 18 -19 13 0 12 0 13 0 12 -1 11 0 12 -1 11 0 10 -1 11 -1 10 -1 10 -2 10 -1 9 -1 10 -2 8 -2 9 -1 8 -2 8 -2 8 -2 7 -3 8 -2 7 -2 6 -3 6 -2 6 -3 6 -3 6 -3 5 -2 5 -3 4 -4 5 -3 4 -3 24 28 -6 4 -5 4 -6 4 -6 4 -6 4 -7 3 -7 3 -7 3 -7 3 -8 3 -7 3 -9 2 -8 3 -8 2 -9 2 -9 2 -9 2 -10 2 -10 2 -10 1 -10 2 -10 1 -11 1 -11 1 -12 1 -11 1 -12 1 -12 0 -12 0 -13 1 -13 0 -13 0 19 -18zm-37 0l0 -19 18 0 -18 19zm0 84l0 -84 37 0 0 84 0 0 -37 0zm38 19l-24 28 0 0 -1 -1 -1 -1 -2 -1 -1 -2 -1 -1 0 -1 -1 -2 -1 -1 -1 -1 0 -2 -1 -1 0 -2 -1 -1 0 -1 -1 -2 0 -1 0 -2 0 -1 -1 -2 0 -1 0 -2 0 -1 -1 -2 0 -1 0 -2 0 -2 0 -1 0 -2 0 -2 0 -2 0 -1 0 -2 37 0 0 1 0 2 0 1 0 1 0 2 0 1 0 1 0 1 0 2 0 1 1 1 0 0 0 1 0 1 0 1 0 1 0 0 1 1 0 0 0 1 0 0 0 0 0 0 0 0 0 0 0 0 0 0 0 0 0 0 -1 -1 0 0 0 0 0 0zm17 2l0 36 0 0 -1 0 -2 0 -1 0 -2 0 -1 0 -2 0 -1 0 -1 0 -2 0 -1 0 -1 0 -2 -1 -1 0 -1 0 -2 0 -1 0 -1 -1 -1 0 -1 0 -2 -1 -1 0 -1 0 -1 -1 -1 0 -2 -1 -1 0 -1 -1 -1 -1 -1 0 -1 -1 -2 -1 -1 -1 24 -28 -1 0 0 0 0 0 0 0 0 0 0 0 1 0 0 0 0 0 0 0 1 0 0 0 0 0 1 0 0 1 1 0 0 0 1 0 1 0 1 0 0 0 1 0 1 0 1 0 1 1 1 0 1 0 1 0 1 0 1 0 1 0 1 0 0 0zm38 36l-38 0 0 -36 38 0 18 18 -18 18zm0 -36l18 0 0 18 -18 -18zm-19 149l0 -131 37 0 0 131 -18 18 -19 -18zm37 0l0 18 -18 0 18 -18zm-381 -19l363 0 0 37 -363 0 -19 -18 19 -19zm0 37l-19 0 0 -18 19 18zm18 -149l0 131 -37 0 0 -131 19 -18 18 18zm-37 0l0 -18 19 0 -19 18zm58 18l-39 0 0 -36 39 0 0 0 0 36zm14 -37l23 28 0 0 -1 1 -1 1 -1 0 -1 1 -1 1 -2 0 -1 1 -1 0 -1 1 -1 0 -1 0 -1 1 -1 0 -1 0 -1 1 -2 0 -1 0 -1 0 -1 0 -1 1 -1 0 -2 0 -1 0 -1 0 -1 0 -2 0 -1 0 -1 0 -1 0 -2 0 -1 0 -1 0 0 -36 1 0 1 0 1 0 1 0 1 0 0 0 1 0 1 0 1 -1 1 0 0 0 1 0 1 0 0 0 1 0 0 0 1 0 0 0 0 0 1 0 0 -1 0 0 0 0 0 0 0 0 0 0 0 0 0 0 0 0 0 1 0 0 -1 0 1 0zm-1 0l1 0 0 0 -1 0zm4 -20l37 0 0 0 0 2 0 1 0 2 0 2 0 2 0 1 -1 2 0 2 0 1 0 2 -1 2 0 1 0 2 -1 1 0 2 0 2 -1 1 0 2 -1 1 -1 2 0 1 -1 1 -1 2 0 1 -1 2 -1 1 -1 1 -1 2 -1 1 -2 1 -1 1 -1 1 -23 -28 0 0 -1 0 1 0 0 0 0 0 0 0 0 0 0 -1 0 0 0 0 0 0 0 -1 1 0 0 -1 0 0 0 -1 0 0 0 -1 1 -1 0 -1 0 -1 0 0 0 -1 0 -1 1 -2 0 -1 0 -1 0 -1 0 -1 0 -2 0 -1 0 -1 0 0zm37 -369l0 369 -37 0 0 -369 0 0 37 0zm-40 -20l32 -19 0 0 0 1 1 1 0 1 1 1 0 1 1 1 0 1 1 1 0 2 1 1 0 1 0 1 0 1 1 1 0 2 0 1 0 1 1 1 0 2 0 1 0 1 0 2 0 1 1 1 0 2 0 1 0 1 0 2 0 1 0 2 0 1 0 1 -37 0 0 -1 0 -1 0 -1 0 -1 0 -1 0 -1 0 -1 0 -1 0 -1 -1 -1 0 -1 0 -1 0 0 0 -1 0 -1 0 0 0 -1 0 -1 -1 0 0 -1 0 0 0 -1 0 0 0 -1 0 0 0 0 -1 -1 0 0 0 0 0 0 0 0 0 0 0 0zm-14 -1l0 -36 0 0 1 0 2 0 2 0 1 0 2 0 2 0 1 0 2 0 1 1 2 0 1 0 2 0 1 1 2 0 1 0 2 1 1 0 2 1 1 0 2 1 1 1 1 0 2 1 1 1 1 1 2 1 1 1 1 1 1 1 2 2 1 1 1 2 -32 19 0 0 0 0 1 1 0 0 0 0 0 0 0 0 1 0 0 0 0 0 -1 0 0 0 0 0 0 0 -1 0 0 0 0 0 -1 0 -1 -1 0 0 -1 0 -1 0 -1 0 0 0 -1 0 -1 0 -1 -1 -1 0 -2 0 -1 0 -1 0 -1 0 0 0zm-39 -36l39 0 0 36 -39 0 -19 -18 19 -18zm0 36l-19 0 0 -18 19 18zm18 -149l0 131 -37 0 0 -131 19 -18 18 18zm-37 0l0 -18 19 0 -19 18zm292 19l-273 0 0 -37 273 0 0 0 0 37zm274 13l-19 32 0 0 -4 -3 -5 -2 -5 -3 -6 -2 -5 -3 -6 -2 -6 -2 -6 -2 -6 -2 -7 -2 -7 -2 -7 -2 -7 -2 -8 -2 -7 -1 -8 -2 -8 -1 -9 -1 -8 -2 -9 -1 -9 -1 -9 -1 -9 0 -10 -1 -10 -1 -10 -1 -10 0 -10 0 -11 -1 -11 0 -11 0 -11 0 0 -37 11 0 12 0 11 1 11 0 11 0 10 1 11 0 10 1 10 1 10 1 9 1 10 1 9 1 9 1 9 2 9 1 8 2 8 2 8 1 8 2 8 2 7 2 8 3 7 2 7 2 7 3 6 2 7 3 6 3 6 3 6 3 5 3 0 0zm-19 32l1 0 -1 0 0 0zm122 175l-38 0 0 0 0 -8 0 -8 0 -7 -1 -8 -1 -7 -1 -8 -1 -7 -1 -6 -1 -7 -2 -7 -2 -6 -2 -6 -2 -6 -2 -6 -2 -5 -3 -6 -3 -5 -3 -5 -3 -5 -3 -5 -3 -5 -4 -4 -3 -5 -4 -4 -4 -4 -4 -4 -4 -4 -5 -4 -5 -3 -4 -4 -5 -3 -6 -3 19 -32 7 4 6 4 6 4 5 5 6 4 5 5 5 5 5 5 5 5 5 6 4 5 4 6 4 6 4 6 3 7 3 6 3 7 3 7 3 7 3 7 2 7 2 7 2 8 1 8 2 7 1 8 1 8 1 9 1 8 0 9 0 8 1 9 0 0zm-289 -63l19 -31 0 0 3 2 2 1 2 2 2 2 3 2 2 2 2 2 1 2 2 2 2 2 2 2 1 3 2 2 1 2 1 3 1 3 2 2 1 3 1 3 0 2 1 3 1 3 1 3 0 3 1 3 0 3 0 3 1 3 0 3 0 4 0 3 0 3 -37 0 0 -3 0 -2 0 -2 0 -3 0 -2 -1 -2 0 -3 0 -2 -1 -2 0 -2 -1 -1 0 -2 -1 -2 0 -2 -1 -1 0 -2 -1 -1 -1 -1 -1 -2 0 -1 -1 -1 -1 -1 -1 -1 -1 -2 -1 -1 -1 -1 -1 0 -1 -1 -1 -1 -1 -1 -1 -1 -1 -1 0 0zm-54 -33l-37 0 18 -18 4 0 3 0 4 0 3 0 3 0 4 0 3 1 3 0 3 0 3 1 4 0 3 1 3 0 3 1 2 0 3 1 3 0 3 1 3 1 3 0 2 1 3 1 3 1 2 1 3 1 2 1 3 1 2 1 2 1 3 2 2 1 2 1 -19 31 -2 0 -1 -1 -2 -1 -1 -1 -2 -1 -2 0 -1 -1 -2 -1 -2 0 -2 -1 -2 -1 -2 0 -2 -1 -2 -1 -2 0 -2 -1 -3 0 -2 0 -3 -1 -2 0 -3 -1 -2 0 -3 0 -2 -1 -3 0 -3 0 -3 0 -3 0 -3 0 -3 0 -3 -1 -3 0 19 -18zm-37 0l0 -18 18 0 -18 18zm0 169l0 -169 37 0 0 169 -19 18 -18 -18zm18 18l-18 0 0 -18 18 18zm74 -52l22 29 0 0 -3 2 -2 1 -2 2 -2 1 -3 1 -2 1 -3 2 -2 1 -3 1 -3 1 -2 1 -3 1 -3 1 -3 0 -3 1 -3 1 -3 1 -3 0 -3 1 -3 0 -3 1 -3 0 -4 1 -3 0 -4 0 -3 1 -3 0 -4 0 -4 0 -3 0 -4 0 -4 0 0 -36 4 0 3 0 3 0 3 -1 3 0 3 0 3 0 3 0 3 -1 3 0 2 0 3 -1 3 0 2 -1 2 0 3 -1 2 0 2 -1 2 0 2 -1 2 -1 2 0 2 -1 2 -1 2 -1 1 0 2 -1 1 -1 2 -1 1 -1 1 -1 2 0 0 0zm19 -52l37 0 0 0 0 3 0 3 0 4 0 3 0 3 -1 3 0 3 -1 3 0 3 -1 2 0 3 -1 3 -1 3 -1 2 -1 3 -1 3 -1 2 -1 3 -1 2 -2 3 -1 2 -2 2 -1 3 -2 2 -1 2 -2 2 -2 2 -2 2 -2 2 -2 2 -2 1 -2 2 -22 -29 1 -1 1 -1 1 -1 1 -1 1 -1 1 -1 1 -1 1 -1 1 -1 0 -2 1 -1 1 -1 1 -2 0 -1 1 -1 1 -2 0 -2 1 -1 1 -2 0 -2 1 -1 0 -2 0 -2 1 -2 0 -2 0 -3 1 -2 0 -2 0 -2 0 -3 0 -2 0 -3 0 0zm680 201l341 0 0 37 -341 0 -19 -18 19 -19zm0 37l-19 0 0 -18 19 18zm18 -149l0 131 -37 0 0 -131 19 -18 18 18zm-37 0l0 -18 19 0 -19 18zm43 18l-24 0 0 -36 24 0 0 0 0 36zm16 -37l11 35 0 0 -1 0 -1 0 -1 0 0 0 -1 1 -1 0 -1 0 0 0 -1 0 -1 0 -1 0 0 0 -1 1 -1 0 -1 0 -1 0 0 0 -1 0 -1 0 -1 0 -1 0 -1 0 0 0 -1 0 -1 0 -1 0 -1 0 -1 0 -1 0 -1 0 -1 0 -1 0 0 -36 1 0 1 0 1 0 0 0 1 0 1 0 0 0 1 0 1 0 0 0 1 0 1 0 0 -1 1 0 0 0 1 0 0 0 1 0 0 0 1 0 0 0 0 0 1 0 0 0 0 0 1 0 0 0 0 0 0 0 1 0 0 0 0 0 0 0zm11 35l0 0 1 -1 -1 1zm-18 -32l37 0 0 0 0 1 0 1 0 1 0 1 0 1 0 1 0 1 0 1 -1 2 0 1 0 1 0 1 -1 1 0 1 -1 1 0 1 -1 1 0 1 -1 2 -1 1 0 1 -1 1 -1 1 -1 1 -1 1 -2 1 -1 1 -1 0 -1 1 -2 1 -1 0 -1 1 -11 -35 -1 0 0 0 -1 0 0 1 -1 0 0 0 -1 1 0 0 -1 0 0 1 -1 0 0 1 0 0 0 0 -1 1 0 0 0 0 0 0 0 0 0 0 0 0 0 0 0 0 0 0 0 0 0 0 0 0 0 -1 0 0 0 0 0 -1 0 0 0 0zm0 -4l36 -10 0 1 0 1 0 0 0 0 0 1 0 0 0 1 0 0 1 0 0 1 0 0 0 1 0 0 0 0 0 1 0 0 0 0 0 1 0 0 0 1 0 0 0 0 0 1 0 0 0 1 0 0 0 0 0 1 0 0 0 1 0 0 0 1 0 0 -37 0 0 0 0 0 0 0 0 -1 0 0 0 0 0 0 0 0 0 0 0 0 0 0 0 -1 0 0 0 0 0 0 0 0 0 -1 0 0 0 0 0 0 0 0 0 0 0 -1 0 0 0 0 0 0 0 0 0 -1 0 0 0 0 0 0 0 -1 0 2zm36 -10l0 0 0 1 0 -1zm-24 -1l0 -37 18 15 0 1 0 0 0 1 0 0 0 1 1 1 0 0 0 1 0 0 0 1 0 1 1 0 0 1 0 1 0 0 0 1 0 1 1 1 0 0 0 1 0 1 0 1 1 0 0 1 0 1 0 1 0 1 1 0 0 1 0 1 0 1 1 1 -36 10 0 -1 -1 -1 0 -1 0 -1 0 -1 -1 -1 0 0 0 -1 0 -1 0 -1 -1 -1 0 -1 0 0 0 -1 -1 -1 0 -1 0 -1 0 0 0 -1 -1 -1 0 -1 0 -1 0 0 0 -1 0 -1 -1 -1 0 0 0 -1 0 -1 0 0 0 -1 0 -1 18 15zm0 -37l15 0 3 15 -18 -15zm-212 0l212 0 0 37 -212 0 -18 -23 18 -14zm-18 14l3 -14 15 0 -18 14zm32 23l-35 -11 0 0 0 0 0 0 0 -1 0 0 0 0 0 0 0 -1 0 0 0 0 0 -1 1 0 0 0 0 -1 0 0 0 -1 0 0 0 0 0 -1 0 0 1 -1 0 0 0 0 0 -1 0 0 0 -1 0 0 0 -1 0 0 1 0 0 -1 0 0 0 -1 36 9 0 1 0 0 -1 1 0 0 0 1 0 0 0 0 0 1 0 0 0 1 -1 0 0 1 0 0 0 1 0 0 0 1 0 0 0 0 0 1 -1 0 0 1 0 0 0 1 0 0 0 0 0 1 0 0 -1 1 0 0 0 0 0 1 0 0 0 0zm-2 6l-37 0 0 -3 1 -1 0 0 0 -1 0 0 0 0 0 -1 0 0 0 -1 0 0 0 -1 0 0 0 0 1 -1 0 0 0 -1 0 0 0 -1 0 0 0 0 0 -1 0 0 0 -1 1 0 0 0 0 -1 0 0 0 -1 0 0 0 0 0 -1 0 0 1 -1 35 11 0 0 0 0 0 1 0 0 0 0 0 0 0 1 0 0 -1 0 0 0 0 1 0 0 0 0 0 0 0 1 0 0 0 0 0 1 0 0 0 0 0 0 0 1 0 0 -1 0 0 1 0 0 0 0 0 1 0 0 0 0 0 1 0 0 0 -3zm-37 0l0 -2 0 -1 0 3zm37 4l-19 32 0 0 -1 -1 -1 -1 -1 -1 -1 0 -2 -1 -1 -1 -1 -1 0 -1 -1 -1 -1 -1 -1 -2 -1 -1 0 -1 -1 -1 -1 -1 0 -1 -1 -2 0 -1 0 -1 -1 -1 0 -1 0 -2 -1 -1 0 -1 0 -1 0 -2 0 -1 -1 -1 0 -1 0 -2 0 -1 0 -1 37 0 0 0 0 1 0 0 0 1 0 1 0 0 1 0 0 1 0 0 0 0 0 1 0 0 0 0 0 0 0 0 0 0 0 0 0 0 0 0 0 0 0 0 0 0 0 0 0 0 0 0 0 0 -1 0 0 0 0 -1 0 0 0 0 0 0 0 0zm11 3l0 36 0 0 -1 0 -1 0 -1 0 -1 0 -1 0 -1 0 -1 0 -1 0 -1 0 -1 0 -1 0 0 -1 -1 0 -1 0 -1 0 -1 0 -1 -1 -1 0 -1 0 -1 0 -1 -1 -1 0 -1 0 -1 -1 -1 0 -1 -1 -1 0 0 0 -1 -1 -1 0 -1 -1 -1 0 19 -32 0 0 0 1 1 0 0 0 0 0 0 0 1 0 0 0 0 0 1 0 0 1 0 0 0 0 1 0 0 0 0 0 1 0 0 0 1 0 0 0 0 0 1 0 0 1 1 0 0 0 0 0 1 0 0 0 1 0 0 0 1 0 0 0 0 0zm11 36l-11 0 0 -36 11 0 18 18 -18 18zm0 -36l18 0 0 18 -18 -18zm-19 149l0 -131 37 0 0 131 -18 18 -19 -18zm37 0l0 18 -18 0 18 -18zm-293 -19l275 0 0 37 -275 0 -18 -18 18 -19zm0 37l-18 0 0 -18 18 18zm19 -149l0 131 -37 0 0 -131 18 -18 19 18zm-37 0l0 -18 18 0 -18 18zm35 18l-17 0 0 -36 17 0 0 0 0 36zm25 -45l30 21 0 0 -1 2 -2 1 -1 2 -1 1 -2 1 -1 2 -1 1 -2 1 -1 1 -2 1 -2 1 -1 1 -2 1 -2 1 -1 1 -2 1 -2 1 -2 0 -2 1 -1 0 -2 1 -2 0 -2 1 -2 0 -2 0 -2 1 -2 0 -2 0 -2 0 -2 0 -2 0 -2 0 0 -36 1 0 2 0 1 0 1 0 1 -1 1 0 1 0 1 0 1 0 1 0 1 -1 1 0 1 0 1 0 1 -1 0 0 1 0 1 -1 0 0 1 0 1 -1 0 0 1 0 0 -1 1 0 0 -1 1 0 0 0 1 -1 0 0 0 -1 1 0 0 0zm26 -64l35 11 0 -1 -1 4 -1 3 -1 3 -1 3 -1 3 -1 3 -1 3 -1 3 -1 3 -1 3 -1 2 -1 3 -1 2 -1 3 -1 2 -1 3 -1 2 -1 2 -1 2 -1 2 -1 2 0 2 -1 2 -1 2 -1 2 -1 2 -1 1 -1 2 -1 2 -1 1 -1 2 -1 1 -30 -21 0 -1 1 -1 0 -1 1 -1 1 -1 0 -1 1 -1 1 -2 0 -1 1 -1 1 -2 1 -2 0 -1 1 -2 1 -2 1 -2 1 -2 1 -2 0 -3 1 -2 1 -2 1 -3 1 -2 1 -3 1 -3 1 -2 1 -3 1 -3 1 -3 1 -3 1 -3 1 -3 0 0zm0 0l0 0 0 -1 0 1zm134 -303l-99 314 -35 -11 99 -314 35 11 0 0zm0 0l0 0 0 0 0 0zm-28 -39l37 0 0 0 0 1 0 1 0 1 0 1 0 1 0 1 0 1 0 1 -1 1 0 1 0 1 0 1 0 1 -1 1 0 1 0 1 -1 1 0 1 0 1 0 2 -1 1 0 1 -1 2 0 1 0 1 -1 2 0 2 -1 1 0 2 -1 1 0 2 -1 2 -35 -11 0 -1 1 -2 0 -1 1 -2 0 -2 1 -1 0 -1 0 -2 1 -1 0 -1 0 -1 1 -2 0 -1 0 -1 1 -1 0 -1 0 -1 0 -1 0 0 1 -1 0 -1 0 -1 0 0 0 -1 0 0 0 -1 0 0 0 0 0 0 0 0 0 0 0 0 0 0zm3 6l16 -33 0 0 1 0 1 1 1 0 0 1 1 0 1 1 1 0 1 1 1 1 1 0 0 1 1 1 1 1 1 1 0 0 1 1 1 1 0 1 1 1 0 1 1 1 0 1 1 1 0 2 0 1 1 1 0 1 0 1 0 1 0 1 0 1 0 1 -37 0 0 0 0 0 0 1 0 0 0 0 0 1 1 0 0 0 0 0 0 1 0 0 0 0 0 1 0 0 1 0 0 1 0 0 0 0 0 0 1 0 0 1 0 0 0 0 0 0 0 0 0 0 0 0 0 0 0 0 0 0 0 0 0 0 0 0zm-27 -2l0 -36 0 0 2 0 1 0 2 0 2 0 1 0 2 0 2 0 1 0 2 0 1 0 2 0 1 0 1 0 2 0 1 1 1 0 2 0 1 0 1 0 1 0 1 0 2 1 1 0 1 0 1 0 1 1 1 0 1 0 1 1 2 0 1 0 1 1 -16 33 0 0 1 0 0 0 -1 0 0 0 0 0 0 0 -1 0 0 0 -1 0 0 0 -1 -1 -1 0 -1 0 0 0 -1 0 -1 0 -1 0 -1 0 -1 0 -2 0 -1 0 -1 0 -1 -1 -2 0 -1 0 -1 0 -2 0 -1 0 -2 0 -2 0 -1 0 0 0zm-18 -36l18 0 0 36 -18 0 -18 -18 18 -18zm0 36l-18 0 0 -18 18 18zm19 -149l0 131 -37 0 0 -131 18 -18 19 18zm-37 0l0 -18 18 0 -18 18zm424 19l-406 0 0 -37 406 0 17 14 -17 23zm0 -37l14 0 3 14 -17 -14zm126 541l-144 -518 35 -9 145 518 0 0 -36 9zm36 -9l0 0 0 -1 0 1zm10 32l-34 15 0 0 0 -1 -1 0 0 -1 0 -1 -1 -1 0 -1 0 -1 -1 -1 0 -1 0 -1 -1 -1 0 -1 0 -1 -1 -1 0 -1 0 -1 -1 -1 0 -2 -1 -1 0 -1 0 -1 -1 -2 0 -1 -1 -1 0 -2 0 -1 -1 -2 0 -1 -1 -2 0 -2 -1 -1 0 -2 36 -9 0 1 1 2 0 1 0 2 1 1 0 2 1 1 0 1 0 2 1 1 0 1 1 1 0 2 0 1 1 1 0 1 0 1 1 1 0 1 0 1 0 1 1 0 0 1 0 1 1 1 0 0 0 1 0 1 0 0 1 1 0 0 0 0 0 0zm-34 15l0 0 0 0 0 0zm58 -1l0 36 0 0 -2 0 -3 0 -2 0 -2 0 -2 0 -3 -1 -2 0 -2 -1 -2 0 -2 -1 -3 -1 -2 0 -2 -1 -2 -1 -2 -1 -2 -1 -1 -1 -2 -2 -2 -1 -2 -1 -2 -2 -1 -1 -2 -2 -1 -2 -2 -1 -1 -2 -1 -2 -1 -2 -2 -2 -1 -2 -1 -2 -1 -2 34 -15 0 1 1 1 0 1 1 1 0 0 1 1 0 1 1 0 0 1 1 1 1 0 0 1 1 0 0 1 1 0 0 0 1 1 1 0 1 0 0 1 1 0 1 0 1 1 1 0 1 0 1 0 1 0 1 1 1 0 1 0 2 0 1 0 0 0zm15 36l-15 0 0 -36 15 0 19 18 -19 18zm0 -36l19 0 0 18 -19 -18zm-18 149l0 -131 37 0 0 131 -19 18 -18 -18zm37 0l0 18 -19 0 19 -18zm-397 -530l58 202 -36 10 -57 -202 17 -24 18 14zm-18 -14l14 0 4 14 -18 -14zm-5 0l5 0 0 37 -5 0 -17 -24 17 -13zm-17 13l4 -13 13 0 -17 13zm-63 203l63 -203 35 11 -62 202 -18 13 -18 -23zm18 23l-25 0 7 -23 18 23zm125 0l-125 0 0 -36 125 0 18 13 -18 23zm18 -23l6 23 -24 0 18 -23zm694 56l333 0 0 37 -333 0 -19 -18 19 -19zm0 37l-19 0 0 -18 19 18zm18 -149l0 131 -37 0 0 -131 19 -18 18 18zm-37 0l0 -18 19 0 -19 18zm31 19l-12 0 0 -37 12 0 0 0 0 37zm18 -39l19 31 0 0 -1 0 -1 1 -1 0 -1 1 -1 0 -1 1 -1 0 -1 1 -1 0 -1 0 -1 1 -1 0 -2 0 -1 0 -1 1 -1 0 -1 0 -1 0 -1 0 -2 1 -1 0 -1 0 -1 0 -2 0 -1 0 -1 0 -1 0 -2 0 -1 0 -1 0 -2 1 -1 0 0 -37 1 0 1 0 1 0 1 0 1 0 1 0 1 0 1 0 0 0 1 -1 1 0 1 0 0 0 1 0 1 0 0 0 1 0 0 0 1 0 0 -1 1 0 0 0 0 0 1 0 0 0 0 0 0 0 1 0 0 0 0 0 0 0 0 0 0 0zm0 0l0 0 0 0 0 0zm4 -21l38 0 0 0 -1 2 0 2 0 2 0 2 0 2 0 1 0 2 -1 2 0 2 0 2 0 2 -1 1 0 2 -1 2 0 2 -1 1 -1 2 0 2 -1 1 -1 2 -1 1 -1 2 -1 1 -1 2 -1 1 -1 2 -1 1 -2 1 -1 1 -2 2 -1 1 -2 1 -19 -31 0 0 0 -1 0 0 0 0 0 0 0 0 1 0 0 0 0 0 0 -1 0 0 0 0 1 -1 0 0 0 -1 0 0 0 -1 1 -1 0 0 0 -1 0 -1 0 -1 1 -1 0 -1 0 -1 0 -1 0 -1 0 -2 0 -1 0 -1 0 -2 0 -1 0 0zm38 -394l0 394 -38 0 0 -394 19 -18 19 18zm-19 -18l19 0 0 18 -19 -18zm-116 0l116 0 0 37 -116 0 -18 -19 18 -18zm-18 18l0 -18 18 0 -18 18zm11 392l-36 -7 0 0 1 -8 2 -8 1 -9 1 -9 2 -9 1 -10 1 -9 2 -10 1 -11 1 -10 1 -11 1 -11 1 -11 1 -11 1 -12 0 -12 1 -12 1 -12 1 -13 0 -13 1 -13 0 -14 1 -13 0 -14 1 -14 0 -15 0 -14 0 -15 1 -15 0 -15 0 -16 0 -16 37 0 0 16 0 16 0 15 -1 16 0 14 0 15 0 15 -1 14 0 14 -1 14 0 13 -1 14 0 13 -1 13 -1 12 -1 12 0 13 -1 11 -1 12 -1 12 -1 11 -1 11 -1 10 -2 11 -1 10 -1 10 -1 10 -2 9 -1 10 -2 9 -1 9 -2 8 0 0zm-36 -7l0 0 0 -1 0 1zm-23 152l-29 -23 0 0 2 -3 2 -3 2 -2 2 -3 2 -3 2 -3 2 -3 2 -3 2 -4 2 -3 2 -4 1 -3 2 -4 2 -4 1 -4 2 -3 2 -5 1 -4 2 -4 1 -4 2 -5 1 -4 2 -5 1 -5 1 -4 2 -5 1 -5 1 -5 1 -6 1 -5 2 -5 1 -6 36 7 -1 6 -1 6 -2 5 -1 6 -1 5 -1 6 -2 5 -1 5 -2 5 -1 5 -2 5 -2 5 -1 5 -2 5 -2 5 -2 4 -1 5 -2 4 -2 4 -2 5 -2 4 -2 4 -3 4 -2 4 -2 3 -2 4 -3 4 -2 3 -2 4 -3 3 -3 4 -2 3 0 0zm-29 -23l0 0 0 0 0 0zm-116 87l0 -36 0 0 4 0 5 -1 5 0 4 0 5 -1 4 0 4 -1 5 -1 4 -1 4 -1 4 -1 4 -1 4 -1 3 -1 4 -2 4 -1 3 -2 4 -2 3 -1 4 -2 3 -2 3 -2 3 -3 3 -2 3 -2 3 -3 3 -3 3 -2 3 -3 3 -3 2 -3 3 -3 29 23 -3 4 -4 3 -3 4 -4 4 -3 3 -4 4 -4 3 -4 3 -4 3 -4 3 -4 2 -4 3 -5 3 -4 2 -5 2 -4 2 -5 2 -5 2 -4 2 -5 1 -5 2 -5 1 -5 1 -5 1 -5 1 -6 1 -5 1 -5 0 -6 1 -5 0 -6 0 -5 0 0 0zm-36 -2l6 -36 0 0 0 0 1 0 1 0 1 0 0 0 1 0 1 0 1 1 1 0 0 0 1 0 1 0 1 0 1 0 1 0 1 0 1 0 1 0 1 0 1 0 1 0 1 0 1 0 1 0 1 0 1 1 1 0 1 0 1 0 1 0 1 0 2 0 0 36 -2 0 -1 0 -1 0 -1 0 -2 0 -1 0 -1 0 -1 0 -1 0 -2 0 -1 0 -1 0 -1 0 -1 0 -1 0 -1 0 -2 0 -1 0 -1 -1 -1 0 -1 0 -1 0 -1 0 -1 0 -1 0 -1 0 -1 0 -1 0 -1 -1 -1 0 -1 0 -1 0 0 0zm0 0l0 0 0 0 0 0zm-76 -38l37 0 -10 -17 2 1 1 1 2 1 2 1 2 0 1 1 2 1 2 1 2 0 1 1 2 1 2 0 2 1 1 1 2 0 2 1 2 0 1 1 2 1 2 0 1 1 2 0 2 1 2 0 1 0 2 1 2 0 1 1 2 0 2 0 1 1 2 0 -6 36 -2 0 -2 -1 -2 0 -2 -1 -3 0 -2 -1 -2 0 -2 -1 -2 0 -2 -1 -2 0 -2 -1 -2 0 -2 -1 -2 -1 -2 0 -2 -1 -2 -1 -2 -1 -2 0 -2 -1 -2 -1 -2 -1 -2 -1 -2 0 -2 -1 -3 -1 -2 -1 -2 -1 -2 -1 -2 -1 -2 -1 -10 -16zm10 16l-10 -5 0 -11 10 16zm27 -218l0 202 -37 0 0 -202 23 -17 14 17zm-37 0l0 -23 23 6 -23 17zm50 -12l-8 36 0 0 -1 0 -1 0 -1 0 -1 -1 -2 0 -1 0 -1 0 -1 -1 -1 0 -1 0 -1 0 -1 0 -1 -1 -1 0 -1 0 0 0 -1 0 -1 -1 -1 0 -1 0 -1 0 0 0 -1 -1 -1 0 -1 0 0 0 -1 0 -1 0 0 0 -1 -1 0 0 -1 0 9 -35 0 0 1 0 0 0 1 0 1 0 0 0 1 0 0 1 1 0 1 0 1 0 0 0 1 0 1 1 1 0 0 0 1 0 1 0 1 1 1 0 1 0 1 0 1 0 1 1 1 0 1 0 1 0 1 1 1 0 2 0 1 0 1 0 0 0zm24 4l0 37 0 0 -1 0 -1 0 -1 0 -1 0 0 0 -1 0 -1 0 -1 -1 -1 0 0 0 -1 0 -1 0 -1 0 -1 0 -1 0 -1 0 -1 -1 -1 0 -1 0 -1 0 -1 0 -1 0 -1 -1 -1 0 -1 0 -1 0 -2 0 -1 -1 -1 0 -1 0 -1 0 -2 -1 8 -36 1 1 1 0 1 0 1 0 1 1 1 0 1 0 1 0 1 0 1 0 1 1 1 0 1 0 1 0 1 0 0 0 1 0 1 1 1 0 0 0 1 0 1 0 0 0 1 0 0 0 1 0 0 0 1 0 0 0 0 0 1 0 0 0 0 0zm51 -65l36 7 0 0 -1 6 -1 5 -1 5 -2 5 -1 4 -2 5 -2 4 -2 5 -1 4 -2 4 -3 4 -2 4 -2 3 -3 4 -2 3 -3 3 -3 3 -2 3 -3 3 -4 3 -3 2 -3 2 -4 2 -4 2 -3 2 -4 1 -4 1 -4 1 -4 1 -4 0 -4 1 -4 0 0 -37 2 0 2 0 2 0 2 -1 2 0 2 -1 2 0 2 -1 2 -1 1 -1 2 -1 2 -1 1 -2 2 -1 2 -2 1 -1 2 -2 1 -3 2 -2 2 -2 1 -3 2 -3 1 -3 1 -3 2 -3 1 -4 1 -3 2 -4 1 -4 1 -4 1 -5 1 -4 0 0zm0 0l0 0 0 -1 0 1zm13 -205l37 0 0 0 0 9 0 9 0 9 0 9 0 8 0 9 -1 8 0 8 0 8 0 8 0 7 -1 7 0 8 0 7 -1 7 0 6 -1 7 0 6 -1 6 0 6 -1 6 0 6 -1 6 0 5 -1 5 -1 5 -1 5 0 5 -1 5 -1 4 -1 4 -1 4 -36 -7 1 -4 1 -4 0 -4 1 -4 1 -4 0 -5 1 -5 1 -4 0 -6 1 -5 0 -5 1 -6 0 -6 1 -6 0 -6 1 -6 0 -7 1 -6 0 -7 0 -7 1 -7 0 -8 0 -7 0 -8 0 -8 1 -8 0 -8 0 -9 0 -8 0 -9 0 -9 0 -9 0 0zm37 -33l0 33 -37 0 0 -33 0 0 37 0zm-41 -39l33 -16 0 0 1 1 0 2 1 1 0 1 1 2 0 1 1 2 0 1 0 1 1 2 0 1 0 2 1 2 0 1 0 2 0 1 1 2 0 2 0 2 0 1 0 2 0 2 1 2 0 2 0 2 0 2 0 2 0 2 0 2 0 2 0 3 0 2 -37 0 0 -2 0 -2 0 -2 0 -2 0 -2 0 -2 0 -1 0 -2 0 -2 0 -1 -1 -2 0 -1 0 -2 0 -1 0 -2 0 -1 0 -1 -1 -1 0 -1 0 -1 0 -1 0 -1 -1 -1 0 -1 0 -1 0 -1 0 0 -1 -1 0 0 0 -1 0 0 0 0 0 0zm0 0l0 0 0 -1 0 1zm-22 -3l0 -36 0 0 2 0 2 0 2 0 2 0 2 0 3 0 2 0 2 1 2 0 1 0 2 1 2 0 2 0 2 1 2 0 1 1 2 0 2 1 2 1 1 1 2 0 2 1 1 1 2 2 1 1 2 1 1 1 2 2 1 2 1 1 1 2 1 2 -33 16 0 0 0 0 0 0 0 1 0 0 1 0 0 0 0 0 0 0 -1 0 0 0 0 -1 0 0 -1 0 -1 0 0 0 -1 -1 -1 0 0 0 -1 0 -1 0 -2 -1 -1 0 -1 0 -1 0 -2 0 -1 0 -2 0 -1 -1 -2 0 -2 0 -1 0 0 0zm-38 -36l38 0 0 36 -38 0 -19 -18 19 -18zm0 36l-19 0 0 -18 19 18zm18 -148l0 130 -37 0 0 -130 19 -19 18 19zm-37 0l0 -19 19 0 -19 19zm663 18l-644 0 0 -37 644 0 19 19 -19 18zm0 -37l19 0 0 19 -19 -19zm-18 149l0 -130 37 0 0 130 -19 18 -18 -18zm37 0l0 18 -19 0 19 -18zm-43 -18l24 0 0 36 -24 0 0 0 0 -36zm-22 43l-33 -17 0 0 1 -2 1 -1 1 -2 1 -2 2 -1 1 -2 1 -1 2 -1 1 -2 2 -1 2 -1 1 -1 2 -1 2 -1 1 -1 2 -1 2 0 2 -1 2 -1 1 0 2 -1 2 0 2 -1 2 0 2 0 2 -1 2 0 2 0 2 0 2 0 3 0 2 0 0 36 -2 0 -1 0 -2 1 -1 0 -1 0 -1 0 -2 0 -1 0 -1 0 -1 1 -1 0 0 0 -1 0 -1 0 -1 1 0 0 -1 0 0 0 -1 1 0 0 0 0 -1 0 0 1 0 0 0 0 -1 0 0 0 0 1 0 0 0 0 0 0 -1 0 0 1zm0 -1l0 1 0 0 0 -1zm-1 19l-37 0 0 0 0 -2 0 -1 0 -1 0 -2 0 -1 0 -1 0 -1 0 -1 1 -2 0 -1 0 -1 0 -1 0 -1 0 -1 0 -1 0 -1 0 -1 0 -1 1 -1 0 -1 0 -1 0 -1 0 -1 0 -1 1 -1 0 -1 0 -1 1 -1 0 -1 0 -1 1 -1 0 -1 33 17 1 -1 0 0 0 0 0 0 0 0 0 0 0 0 0 0 -1 1 0 0 0 0 0 1 0 0 0 1 0 0 0 1 0 1 0 0 0 1 0 1 0 1 0 0 0 1 0 1 -1 1 0 1 0 1 0 1 0 1 0 1 0 1 0 2 0 0zm-37 362l0 -362 37 0 0 362 0 0 -37 0zm39 20l-21 30 0 0 -2 -1 -1 -1 -2 -2 -1 -1 -1 -1 -1 -2 -1 -1 -1 -2 -1 -1 0 -1 -1 -2 -1 -1 0 -2 -1 -1 0 -2 -1 -1 0 -2 0 -2 -1 -1 0 -2 0 -1 -1 -2 0 -2 0 -2 0 -1 0 -2 0 -2 -1 -2 0 -2 0 -1 0 -2 0 -2 37 0 0 1 0 2 0 1 0 2 1 1 0 1 0 1 0 2 0 1 0 1 0 1 0 1 1 1 0 0 0 1 0 1 0 1 0 0 1 1 0 0 0 0 0 1 0 0 0 0 0 0 0 0 0 0 0 0 0 0 0 0 0 0 0 -1 -1 0zm21 4l0 37 0 0 -2 0 -1 -1 -2 0 -1 0 -2 0 -1 0 -2 0 -1 0 -1 0 -2 0 -1 -1 -2 0 -1 0 -1 0 -2 0 -1 -1 -1 0 -2 0 -1 -1 -1 0 -1 -1 -2 0 -1 0 -1 -1 -1 0 -2 -1 -1 -1 -1 0 -1 -1 -1 -1 -1 0 -1 -1 21 -30 1 0 0 1 0 0 0 0 0 0 1 0 0 0 0 0 1 1 0 0 1 0 0 0 1 0 0 0 1 0 0 1 1 0 1 0 0 0 1 0 1 0 1 0 1 0 0 1 1 0 1 0 1 0 1 0 1 0 1 0 2 0 1 0 0 0zm25 37l-25 0 0 -37 25 0 19 18 -19 19zm0 -37l19 0 0 18 -19 -18zm-18 149l0 -131 37 0 0 131 -19 18 -18 -18zm37 0l0 18 -19 0 19 -18z"/>
  </g>
  <path fill="#FEFEFE" d="M986 806c16,0 30,5 39,15 11,12 17,29 17,53 0,23 -6,41 -16,53 -10,10 -23,15 -40,15l-67 0 0 18 -53 0 0 -18 -66 0c-17,0 -30,-5 -40,-15 -11,-12 -16,-30 -16,-53 0,-24 5,-41 16,-53 10,-10 23,-15 40,-15l66 0 0 -17 53 0 0 17 67 0zm-120 44l-48 0c-7,0 -12,2 -15,5 -4,4 -6,11 -6,20 0,10 2,16 6,21 3,3 8,5 15,5l48 0 0 -51zm53 0l0 51 49 0c6,0 11,-2 14,-5 5,-4 7,-11 7,-21 0,-9 -2,-15 -6,-19 -4,-4 -9,-6 -15,-6l-49 0zm337 -61l60 0 -62 109c-12,21 -18,33 -20,35 -7,10 -14,17 -22,21 -10,4 -23,6 -40,6l-56 0 0 -44 58 0c4,0 7,0 8,-1 1,-1 2,-2 4,-4l-113 -122 74 0 61 71c1,1 2,4 4,11 0,2 1,4 2,4 0,0 1,-3 1,-8 0,-5 1,-8 2,-10l39 -68zm84 44l0 -44 207 0 0 44 -77 0 0 127 -53 0 0 -127 -77 0zm300 59l0 27 93 0c10,0 15,-4 15,-13 0,-6 -1,-9 -4,-11 -2,-2 -6,-3 -11,-3l-93 0zm-53 68l0 -171 199 0 0 41 -146 0 0 24 108 0c18,0 32,4 41,12 8,8 12,21 12,38 0,21 -5,36 -15,45 -8,7 -21,11 -38,11l-161 0zm490 -85c0,41 -5,66 -16,74 -11,9 -44,14 -99,14 -40,0 -67,-2 -80,-5 -15,-3 -25,-11 -30,-24 -3,-9 -4,-29 -4,-59 0,-42 5,-67 15,-75 11,-9 44,-14 99,-14 55,0 88,5 99,14 10,8 16,33 16,75zm-176 0c0,22 2,34 7,38 6,3 23,5 54,5 31,0 49,-2 54,-5 5,-4 7,-16 7,-38 0,-22 -2,-35 -7,-39 -5,-3 -23,-5 -54,-5 -31,0 -48,2 -54,5 -5,4 -7,17 -7,39zm441 -86l0 171 -54 0 0 -127 -94 0c0,50 -5,84 -13,102 -8,17 -21,25 -41,25l-25 0 0 -44c13,0 20,-5 22,-16 2,-11 3,-48 3,-111l202 0zm54 171l0 -171 53 0 0 42 77 0c29,0 47,3 57,10 11,9 17,27 17,55 0,27 -6,45 -17,54 -9,7 -28,10 -57,10l-130 0zm53 -85l0 41 77 0c7,0 11,-1 14,-4 4,-3 6,-9 6,-16 0,-8 -2,-13 -6,-17 -3,-3 -7,-4 -14,-4l-77 0zm192 -86l53 0 0 60 115 0 0 -60 53 0 0 171 -53 0 0 -67 -115 0 0 67 -53 0 0 -171zm502 0l53 0 0 171 -53 0 0 -171zm-233 171l0 -171 53 0 0 42 78 0c28,0 47,3 56,10 11,9 17,27 17,55 0,27 -6,45 -17,54 -9,7 -28,10 -56,10l-131 0zm53 -85l0 41 78 0c6,0 11,-1 14,-4 4,-3 5,-8 5,-16 0,-8 -1,-13 -5,-16 -3,-3 -8,-5 -14,-5l-78 0zm275 -86l53 0 0 118c-1,4 -3,9 -4,13 0,2 0,3 0,5 1,0 2,-1 3,-3 1,-2 2,-5 3,-7l91 -126 88 0 0 171 -54 0 0 -118c0,0 2,-5 4,-13 0,-2 0,-4 1,-5 -2,0 -3,1 -4,3 -1,2 -2,4 -3,6l-91 127 -87 0 0 -171zm165 -33l-86 0 0 23 86 0 0 -23zm-1793 264l53 0 0 60 28 0 60 -60 74 0 -87 82 98 89 -78 0 -67 -67 -28 0 0 67 -53 0 0 -171zm488 0l0 171 -53 0 0 -127 -95 0c0,50 -4,84 -13,102 -7,17 -21,25 -40,25l-25 0 0 -44c12,0 20,-5 22,-16 2,-10 3,-48 3,-111l201 0zm222 0l60 0 -62 109c-12,21 -18,33 -20,35 -7,10 -14,17 -23,21 -9,4 -22,6 -39,6l-56 0 0 -44 58 0c4,0 7,0 8,-1 1,0 2,-2 4,-4l-113 -122 74 0 61 71c1,1 2,4 3,11 1,2 2,4 3,4 0,0 0,-3 1,-8 0,-5 1,-8 2,-10l39 -68zm143 103l0 27 92 0c10,0 15,-4 15,-13 0,-6 -1,-9 -3,-11 -3,-2 -7,-3 -12,-3l-92 0zm-54 68l0 -171 199 0 0 41 -145 0 0 24 107 0c19,0 32,4 41,12 8,8 13,21 13,38 0,21 -5,36 -15,45 -9,7 -22,11 -39,11l-161 0z"/>
 </g>
</svg>